<?xml version="1.0" encoding="utf-8" standalone="no"?>
<!DOCTYPE svg PUBLIC "-//W3C//DTD SVG 1.1//EN"
  "http://www.w3.org/Graphics/SVG/1.1/DTD/svg11.dtd">
<!-- Created with matplotlib (https://matplotlib.org/) -->
<svg height="468.955781pt" version="1.1" viewBox="0 0 754.66875 468.955781" width="754.66875pt" xmlns="http://www.w3.org/2000/svg" xmlns:xlink="http://www.w3.org/1999/xlink">
 <metadata>
  <rdf:RDF xmlns:cc="http://creativecommons.org/ns#" xmlns:dc="http://purl.org/dc/elements/1.1/" xmlns:rdf="http://www.w3.org/1999/02/22-rdf-syntax-ns#">
   <cc:Work>
    <dc:type rdf:resource="http://purl.org/dc/dcmitype/StillImage"/>
    <dc:date>2022-01-26T18:53:16.529575</dc:date>
    <dc:format>image/svg+xml</dc:format>
    <dc:creator>
     <cc:Agent>
      <dc:title>Matplotlib v3.3.2, https://matplotlib.org/</dc:title>
     </cc:Agent>
    </dc:creator>
   </cc:Work>
  </rdf:RDF>
 </metadata>
 <defs>
  <style type="text/css">*{stroke-linecap:butt;stroke-linejoin:round;}</style>
 </defs>
 <g id="figure_1">
  <g id="patch_1">
   <path d="M 0 468.955781 
L 754.66875 468.955781 
L 754.66875 0 
L 0 0 
z
" style="fill:none;"/>
  </g>
  <g id="axes_1">
   <g id="patch_2">
    <path d="M 19.725 215.070384 
L 233.077941 215.070384 
L 233.077941 17.397656 
L 19.725 17.397656 
z
" style="fill:#ffffff;"/>
   </g>
   <g id="patch_3">
    <path clip-path="url(#pf78eeaaa90)" d="M 20.791765 215.070384 
L 25.592206 215.070384 
L 25.592206 205.186747 
L 20.791765 205.186747 
z
" style="fill:#46962b;stroke:#000000;stroke-linejoin:miter;"/>
   </g>
   <g id="patch_4">
    <path clip-path="url(#pf78eeaaa90)" d="M 25.592206 215.070384 
L 30.392647 215.070384 
L 30.392647 188.71402 
L 25.592206 188.71402 
z
" style="fill:#46962b;stroke:#000000;stroke-linejoin:miter;"/>
   </g>
   <g id="patch_5">
    <path clip-path="url(#pf78eeaaa90)" d="M 30.392647 215.070384 
L 35.193088 215.070384 
L 35.193088 149.179474 
L 30.392647 149.179474 
z
" style="fill:#46962b;stroke:#000000;stroke-linejoin:miter;"/>
   </g>
   <g id="patch_6">
    <path clip-path="url(#pf78eeaaa90)" d="M 35.193088 215.070384 
L 39.993529 215.070384 
L 39.993529 168.946747 
L 35.193088 168.946747 
z
" style="fill:#46962b;stroke:#000000;stroke-linejoin:miter;"/>
   </g>
   <g id="patch_7">
    <path clip-path="url(#pf78eeaaa90)" d="M 39.993529 215.070384 
L 44.793971 215.070384 
L 44.793971 175.535838 
L 39.993529 175.535838 
z
" style="fill:#46962b;stroke:#000000;stroke-linejoin:miter;"/>
   </g>
   <g id="patch_8">
    <path clip-path="url(#pf78eeaaa90)" d="M 44.793971 215.070384 
L 49.594412 215.070384 
L 49.594412 205.186747 
L 44.793971 205.186747 
z
" style="fill:#46962b;stroke:#000000;stroke-linejoin:miter;"/>
   </g>
   <g id="patch_9">
    <path clip-path="url(#pf78eeaaa90)" d="M 49.594412 215.070384 
L 54.394853 215.070384 
L 54.394853 201.892202 
L 49.594412 201.892202 
z
" style="fill:#46962b;stroke:#000000;stroke-linejoin:miter;"/>
   </g>
   <g id="patch_10">
    <path clip-path="url(#pf78eeaaa90)" d="M 54.394853 215.070384 
L 59.195294 215.070384 
L 59.195294 198.597656 
L 54.394853 198.597656 
z
" style="fill:#46962b;stroke:#000000;stroke-linejoin:miter;"/>
   </g>
   <g id="matplotlib.axis_1">
    <g id="xtick_1">
     <g id="line2d_1">
      <defs>
       <path d="M 0 0 
L 0 3.5 
" id="m5bccd9a9d1" style="stroke:#000000;stroke-width:0.8;"/>
      </defs>
      <g>
       <use style="stroke:#000000;stroke-width:0.8;" x="19.725" xlink:href="#m5bccd9a9d1" y="215.070384"/>
      </g>
     </g>
     <g id="text_1">
      <!-- 0 -->
      <g transform="translate(16.54375 229.668821)scale(0.1 -0.1)">
       <defs>
        <path d="M 31.78125 66.40625 
Q 24.171875 66.40625 20.328125 58.90625 
Q 16.5 51.421875 16.5 36.375 
Q 16.5 21.390625 20.328125 13.890625 
Q 24.171875 6.390625 31.78125 6.390625 
Q 39.453125 6.390625 43.28125 13.890625 
Q 47.125 21.390625 47.125 36.375 
Q 47.125 51.421875 43.28125 58.90625 
Q 39.453125 66.40625 31.78125 66.40625 
z
M 31.78125 74.21875 
Q 44.046875 74.21875 50.515625 64.515625 
Q 56.984375 54.828125 56.984375 36.375 
Q 56.984375 17.96875 50.515625 8.265625 
Q 44.046875 -1.421875 31.78125 -1.421875 
Q 19.53125 -1.421875 13.0625 8.265625 
Q 6.59375 17.96875 6.59375 36.375 
Q 6.59375 54.828125 13.0625 64.515625 
Q 19.53125 74.21875 31.78125 74.21875 
z
" id="DejaVuSans-48"/>
       </defs>
       <use xlink:href="#DejaVuSans-48"/>
      </g>
     </g>
    </g>
    <g id="xtick_2">
     <g id="line2d_2">
      <g>
       <use style="stroke:#000000;stroke-width:0.8;" x="73.063235" xlink:href="#m5bccd9a9d1" y="215.070384"/>
      </g>
     </g>
     <g id="text_2">
      <!-- 50 -->
      <g transform="translate(66.700735 229.668821)scale(0.1 -0.1)">
       <defs>
        <path d="M 10.796875 72.90625 
L 49.515625 72.90625 
L 49.515625 64.59375 
L 19.828125 64.59375 
L 19.828125 46.734375 
Q 21.96875 47.46875 24.109375 47.828125 
Q 26.265625 48.1875 28.421875 48.1875 
Q 40.625 48.1875 47.75 41.5 
Q 54.890625 34.8125 54.890625 23.390625 
Q 54.890625 11.625 47.5625 5.09375 
Q 40.234375 -1.421875 26.90625 -1.421875 
Q 22.3125 -1.421875 17.546875 -0.640625 
Q 12.796875 0.140625 7.71875 1.703125 
L 7.71875 11.625 
Q 12.109375 9.234375 16.796875 8.0625 
Q 21.484375 6.890625 26.703125 6.890625 
Q 35.15625 6.890625 40.078125 11.328125 
Q 45.015625 15.765625 45.015625 23.390625 
Q 45.015625 31 40.078125 35.4375 
Q 35.15625 39.890625 26.703125 39.890625 
Q 22.75 39.890625 18.8125 39.015625 
Q 14.890625 38.140625 10.796875 36.28125 
z
" id="DejaVuSans-53"/>
       </defs>
       <use xlink:href="#DejaVuSans-53"/>
       <use x="63.623047" xlink:href="#DejaVuSans-48"/>
      </g>
     </g>
    </g>
    <g id="xtick_3">
     <g id="line2d_3">
      <g>
       <use style="stroke:#000000;stroke-width:0.8;" x="126.401471" xlink:href="#m5bccd9a9d1" y="215.070384"/>
      </g>
     </g>
     <g id="text_3">
      <!-- 100 -->
      <g transform="translate(116.857721 229.668821)scale(0.1 -0.1)">
       <defs>
        <path d="M 12.40625 8.296875 
L 28.515625 8.296875 
L 28.515625 63.921875 
L 10.984375 60.40625 
L 10.984375 69.390625 
L 28.421875 72.90625 
L 38.28125 72.90625 
L 38.28125 8.296875 
L 54.390625 8.296875 
L 54.390625 0 
L 12.40625 0 
z
" id="DejaVuSans-49"/>
       </defs>
       <use xlink:href="#DejaVuSans-49"/>
       <use x="63.623047" xlink:href="#DejaVuSans-48"/>
       <use x="127.246094" xlink:href="#DejaVuSans-48"/>
      </g>
     </g>
    </g>
    <g id="xtick_4">
     <g id="line2d_4">
      <g>
       <use style="stroke:#000000;stroke-width:0.8;" x="179.739706" xlink:href="#m5bccd9a9d1" y="215.070384"/>
      </g>
     </g>
     <g id="text_4">
      <!-- 150 -->
      <g transform="translate(170.195956 229.668821)scale(0.1 -0.1)">
       <use xlink:href="#DejaVuSans-49"/>
       <use x="63.623047" xlink:href="#DejaVuSans-53"/>
       <use x="127.246094" xlink:href="#DejaVuSans-48"/>
      </g>
     </g>
    </g>
    <g id="xtick_5">
     <g id="line2d_5">
      <g>
       <use style="stroke:#000000;stroke-width:0.8;" x="233.077941" xlink:href="#m5bccd9a9d1" y="215.070384"/>
      </g>
     </g>
     <g id="text_5">
      <!-- 200 -->
      <g transform="translate(223.534191 229.668821)scale(0.1 -0.1)">
       <defs>
        <path d="M 19.1875 8.296875 
L 53.609375 8.296875 
L 53.609375 0 
L 7.328125 0 
L 7.328125 8.296875 
Q 12.9375 14.109375 22.625 23.890625 
Q 32.328125 33.6875 34.8125 36.53125 
Q 39.546875 41.84375 41.421875 45.53125 
Q 43.3125 49.21875 43.3125 52.78125 
Q 43.3125 58.59375 39.234375 62.25 
Q 35.15625 65.921875 28.609375 65.921875 
Q 23.96875 65.921875 18.8125 64.3125 
Q 13.671875 62.703125 7.8125 59.421875 
L 7.8125 69.390625 
Q 13.765625 71.78125 18.9375 73 
Q 24.125 74.21875 28.421875 74.21875 
Q 39.75 74.21875 46.484375 68.546875 
Q 53.21875 62.890625 53.21875 53.421875 
Q 53.21875 48.921875 51.53125 44.890625 
Q 49.859375 40.875 45.40625 35.40625 
Q 44.1875 33.984375 37.640625 27.21875 
Q 31.109375 20.453125 19.1875 8.296875 
z
" id="DejaVuSans-50"/>
       </defs>
       <use xlink:href="#DejaVuSans-50"/>
       <use x="63.623047" xlink:href="#DejaVuSans-48"/>
       <use x="127.246094" xlink:href="#DejaVuSans-48"/>
      </g>
     </g>
    </g>
   </g>
   <g id="matplotlib.axis_2">
    <g id="ytick_1">
     <g id="line2d_6">
      <defs>
       <path d="M 0 0 
L -3.5 0 
" id="m303181d3a1" style="stroke:#000000;stroke-width:0.8;"/>
      </defs>
      <g>
       <use style="stroke:#000000;stroke-width:0.8;" x="19.725" xlink:href="#m303181d3a1" y="215.070384"/>
      </g>
     </g>
     <g id="text_6">
      <!-- 0 -->
      <g transform="translate(6.3625 218.869602)scale(0.1 -0.1)">
       <use xlink:href="#DejaVuSans-48"/>
      </g>
     </g>
    </g>
    <g id="ytick_2">
     <g id="line2d_7">
      <g>
       <use style="stroke:#000000;stroke-width:0.8;" x="19.725" xlink:href="#m303181d3a1" y="182.124929"/>
      </g>
     </g>
     <g id="text_7">
      <!-- 10 -->
      <g transform="translate(-0 185.924148)scale(0.1 -0.1)">
       <use xlink:href="#DejaVuSans-49"/>
       <use x="63.623047" xlink:href="#DejaVuSans-48"/>
      </g>
     </g>
    </g>
    <g id="ytick_3">
     <g id="line2d_8">
      <g>
       <use style="stroke:#000000;stroke-width:0.8;" x="19.725" xlink:href="#m303181d3a1" y="149.179474"/>
      </g>
     </g>
     <g id="text_8">
      <!-- 20 -->
      <g transform="translate(-0 152.978693)scale(0.1 -0.1)">
       <use xlink:href="#DejaVuSans-50"/>
       <use x="63.623047" xlink:href="#DejaVuSans-48"/>
      </g>
     </g>
    </g>
    <g id="ytick_4">
     <g id="line2d_9">
      <g>
       <use style="stroke:#000000;stroke-width:0.8;" x="19.725" xlink:href="#m303181d3a1" y="116.23402"/>
      </g>
     </g>
     <g id="text_9">
      <!-- 30 -->
      <g transform="translate(-0 120.033239)scale(0.1 -0.1)">
       <defs>
        <path d="M 40.578125 39.3125 
Q 47.65625 37.796875 51.625 33 
Q 55.609375 28.21875 55.609375 21.1875 
Q 55.609375 10.40625 48.1875 4.484375 
Q 40.765625 -1.421875 27.09375 -1.421875 
Q 22.515625 -1.421875 17.65625 -0.515625 
Q 12.796875 0.390625 7.625 2.203125 
L 7.625 11.71875 
Q 11.71875 9.328125 16.59375 8.109375 
Q 21.484375 6.890625 26.8125 6.890625 
Q 36.078125 6.890625 40.9375 10.546875 
Q 45.796875 14.203125 45.796875 21.1875 
Q 45.796875 27.640625 41.28125 31.265625 
Q 36.765625 34.90625 28.71875 34.90625 
L 20.21875 34.90625 
L 20.21875 43.015625 
L 29.109375 43.015625 
Q 36.375 43.015625 40.234375 45.921875 
Q 44.09375 48.828125 44.09375 54.296875 
Q 44.09375 59.90625 40.109375 62.90625 
Q 36.140625 65.921875 28.71875 65.921875 
Q 24.65625 65.921875 20.015625 65.03125 
Q 15.375 64.15625 9.8125 62.3125 
L 9.8125 71.09375 
Q 15.4375 72.65625 20.34375 73.4375 
Q 25.25 74.21875 29.59375 74.21875 
Q 40.828125 74.21875 47.359375 69.109375 
Q 53.90625 64.015625 53.90625 55.328125 
Q 53.90625 49.265625 50.4375 45.09375 
Q 46.96875 40.921875 40.578125 39.3125 
z
" id="DejaVuSans-51"/>
       </defs>
       <use xlink:href="#DejaVuSans-51"/>
       <use x="63.623047" xlink:href="#DejaVuSans-48"/>
      </g>
     </g>
    </g>
    <g id="ytick_5">
     <g id="line2d_10">
      <g>
       <use style="stroke:#000000;stroke-width:0.8;" x="19.725" xlink:href="#m303181d3a1" y="83.288565"/>
      </g>
     </g>
     <g id="text_10">
      <!-- 40 -->
      <g transform="translate(-0 87.087784)scale(0.1 -0.1)">
       <defs>
        <path d="M 37.796875 64.3125 
L 12.890625 25.390625 
L 37.796875 25.390625 
z
M 35.203125 72.90625 
L 47.609375 72.90625 
L 47.609375 25.390625 
L 58.015625 25.390625 
L 58.015625 17.1875 
L 47.609375 17.1875 
L 47.609375 0 
L 37.796875 0 
L 37.796875 17.1875 
L 4.890625 17.1875 
L 4.890625 26.703125 
z
" id="DejaVuSans-52"/>
       </defs>
       <use xlink:href="#DejaVuSans-52"/>
       <use x="63.623047" xlink:href="#DejaVuSans-48"/>
      </g>
     </g>
    </g>
    <g id="ytick_6">
     <g id="line2d_11">
      <g>
       <use style="stroke:#000000;stroke-width:0.8;" x="19.725" xlink:href="#m303181d3a1" y="50.343111"/>
      </g>
     </g>
     <g id="text_11">
      <!-- 50 -->
      <g transform="translate(-0 54.14233)scale(0.1 -0.1)">
       <use xlink:href="#DejaVuSans-53"/>
       <use x="63.623047" xlink:href="#DejaVuSans-48"/>
      </g>
     </g>
    </g>
    <g id="ytick_7">
     <g id="line2d_12">
      <g>
       <use style="stroke:#000000;stroke-width:0.8;" x="19.725" xlink:href="#m303181d3a1" y="17.397656"/>
      </g>
     </g>
     <g id="text_12">
      <!-- 60 -->
      <g transform="translate(-0 21.196875)scale(0.1 -0.1)">
       <defs>
        <path d="M 33.015625 40.375 
Q 26.375 40.375 22.484375 35.828125 
Q 18.609375 31.296875 18.609375 23.390625 
Q 18.609375 15.53125 22.484375 10.953125 
Q 26.375 6.390625 33.015625 6.390625 
Q 39.65625 6.390625 43.53125 10.953125 
Q 47.40625 15.53125 47.40625 23.390625 
Q 47.40625 31.296875 43.53125 35.828125 
Q 39.65625 40.375 33.015625 40.375 
z
M 52.59375 71.296875 
L 52.59375 62.3125 
Q 48.875 64.0625 45.09375 64.984375 
Q 41.3125 65.921875 37.59375 65.921875 
Q 27.828125 65.921875 22.671875 59.328125 
Q 17.53125 52.734375 16.796875 39.40625 
Q 19.671875 43.65625 24.015625 45.921875 
Q 28.375 48.1875 33.59375 48.1875 
Q 44.578125 48.1875 50.953125 41.515625 
Q 57.328125 34.859375 57.328125 23.390625 
Q 57.328125 12.15625 50.6875 5.359375 
Q 44.046875 -1.421875 33.015625 -1.421875 
Q 20.359375 -1.421875 13.671875 8.265625 
Q 6.984375 17.96875 6.984375 36.375 
Q 6.984375 53.65625 15.1875 63.9375 
Q 23.390625 74.21875 37.203125 74.21875 
Q 40.921875 74.21875 44.703125 73.484375 
Q 48.484375 72.75 52.59375 71.296875 
z
" id="DejaVuSans-54"/>
       </defs>
       <use xlink:href="#DejaVuSans-54"/>
       <use x="63.623047" xlink:href="#DejaVuSans-48"/>
      </g>
     </g>
    </g>
   </g>
   <g id="patch_11">
    <path d="M 19.725 215.070384 
L 19.725 17.397656 
" style="fill:none;stroke:#000000;stroke-linecap:square;stroke-linejoin:miter;stroke-width:0.8;"/>
   </g>
   <g id="patch_12">
    <path d="M 233.077941 215.070384 
L 233.077941 17.397656 
" style="fill:none;stroke:#000000;stroke-linecap:square;stroke-linejoin:miter;stroke-width:0.8;"/>
   </g>
   <g id="patch_13">
    <path d="M 19.725 215.070384 
L 233.077941 215.070384 
" style="fill:none;stroke:#000000;stroke-linecap:square;stroke-linejoin:miter;stroke-width:0.8;"/>
   </g>
   <g id="patch_14">
    <path d="M 19.725 17.397656 
L 233.077941 17.397656 
" style="fill:none;stroke:#000000;stroke-linecap:square;stroke-linejoin:miter;stroke-width:0.8;"/>
   </g>
   <g id="text_13">
    <!-- Bündnis 90/Die Grünen -->
    <g transform="translate(39.164752 11.397656)scale(0.15 -0.15)">
     <defs>
      <path d="M 19.671875 34.8125 
L 19.671875 8.109375 
L 35.5 8.109375 
Q 43.453125 8.109375 47.28125 11.40625 
Q 51.125 14.703125 51.125 21.484375 
Q 51.125 28.328125 47.28125 31.5625 
Q 43.453125 34.8125 35.5 34.8125 
z
M 19.671875 64.796875 
L 19.671875 42.828125 
L 34.28125 42.828125 
Q 41.5 42.828125 45.03125 45.53125 
Q 48.578125 48.25 48.578125 53.8125 
Q 48.578125 59.328125 45.03125 62.0625 
Q 41.5 64.796875 34.28125 64.796875 
z
M 9.8125 72.90625 
L 35.015625 72.90625 
Q 46.296875 72.90625 52.390625 68.21875 
Q 58.5 63.53125 58.5 54.890625 
Q 58.5 48.1875 55.375 44.234375 
Q 52.25 40.28125 46.1875 39.3125 
Q 53.46875 37.75 57.5 32.78125 
Q 61.53125 27.828125 61.53125 20.40625 
Q 61.53125 10.640625 54.890625 5.3125 
Q 48.25 0 35.984375 0 
L 9.8125 0 
z
" id="DejaVuSans-66"/>
      <path d="M 8.5 21.578125 
L 8.5 54.6875 
L 17.484375 54.6875 
L 17.484375 21.921875 
Q 17.484375 14.15625 20.5 10.265625 
Q 23.53125 6.390625 29.59375 6.390625 
Q 36.859375 6.390625 41.078125 11.03125 
Q 45.3125 15.671875 45.3125 23.6875 
L 45.3125 54.6875 
L 54.296875 54.6875 
L 54.296875 0 
L 45.3125 0 
L 45.3125 8.40625 
Q 42.046875 3.421875 37.71875 1 
Q 33.40625 -1.421875 27.6875 -1.421875 
Q 18.265625 -1.421875 13.375 4.4375 
Q 8.5 10.296875 8.5 21.578125 
z
M 31.109375 56 
z
M 35.59375 75.78125 
L 45.515625 75.78125 
L 45.515625 65.921875 
L 35.59375 65.921875 
z
M 16.5 75.78125 
L 26.421875 75.78125 
L 26.421875 65.921875 
L 16.5 65.921875 
z
" id="DejaVuSans-252"/>
      <path d="M 54.890625 33.015625 
L 54.890625 0 
L 45.90625 0 
L 45.90625 32.71875 
Q 45.90625 40.484375 42.875 44.328125 
Q 39.84375 48.1875 33.796875 48.1875 
Q 26.515625 48.1875 22.3125 43.546875 
Q 18.109375 38.921875 18.109375 30.90625 
L 18.109375 0 
L 9.078125 0 
L 9.078125 54.6875 
L 18.109375 54.6875 
L 18.109375 46.1875 
Q 21.34375 51.125 25.703125 53.5625 
Q 30.078125 56 35.796875 56 
Q 45.21875 56 50.046875 50.171875 
Q 54.890625 44.34375 54.890625 33.015625 
z
" id="DejaVuSans-110"/>
      <path d="M 45.40625 46.390625 
L 45.40625 75.984375 
L 54.390625 75.984375 
L 54.390625 0 
L 45.40625 0 
L 45.40625 8.203125 
Q 42.578125 3.328125 38.25 0.953125 
Q 33.9375 -1.421875 27.875 -1.421875 
Q 17.96875 -1.421875 11.734375 6.484375 
Q 5.515625 14.40625 5.515625 27.296875 
Q 5.515625 40.1875 11.734375 48.09375 
Q 17.96875 56 27.875 56 
Q 33.9375 56 38.25 53.625 
Q 42.578125 51.265625 45.40625 46.390625 
z
M 14.796875 27.296875 
Q 14.796875 17.390625 18.875 11.75 
Q 22.953125 6.109375 30.078125 6.109375 
Q 37.203125 6.109375 41.296875 11.75 
Q 45.40625 17.390625 45.40625 27.296875 
Q 45.40625 37.203125 41.296875 42.84375 
Q 37.203125 48.484375 30.078125 48.484375 
Q 22.953125 48.484375 18.875 42.84375 
Q 14.796875 37.203125 14.796875 27.296875 
z
" id="DejaVuSans-100"/>
      <path d="M 9.421875 54.6875 
L 18.40625 54.6875 
L 18.40625 0 
L 9.421875 0 
z
M 9.421875 75.984375 
L 18.40625 75.984375 
L 18.40625 64.59375 
L 9.421875 64.59375 
z
" id="DejaVuSans-105"/>
      <path d="M 44.28125 53.078125 
L 44.28125 44.578125 
Q 40.484375 46.53125 36.375 47.5 
Q 32.28125 48.484375 27.875 48.484375 
Q 21.1875 48.484375 17.84375 46.4375 
Q 14.5 44.390625 14.5 40.28125 
Q 14.5 37.15625 16.890625 35.375 
Q 19.28125 33.59375 26.515625 31.984375 
L 29.59375 31.296875 
Q 39.15625 29.25 43.1875 25.515625 
Q 47.21875 21.78125 47.21875 15.09375 
Q 47.21875 7.46875 41.1875 3.015625 
Q 35.15625 -1.421875 24.609375 -1.421875 
Q 20.21875 -1.421875 15.453125 -0.5625 
Q 10.6875 0.296875 5.421875 2 
L 5.421875 11.28125 
Q 10.40625 8.6875 15.234375 7.390625 
Q 20.0625 6.109375 24.8125 6.109375 
Q 31.15625 6.109375 34.5625 8.28125 
Q 37.984375 10.453125 37.984375 14.40625 
Q 37.984375 18.0625 35.515625 20.015625 
Q 33.0625 21.96875 24.703125 23.78125 
L 21.578125 24.515625 
Q 13.234375 26.265625 9.515625 29.90625 
Q 5.8125 33.546875 5.8125 39.890625 
Q 5.8125 47.609375 11.28125 51.796875 
Q 16.75 56 26.8125 56 
Q 31.78125 56 36.171875 55.265625 
Q 40.578125 54.546875 44.28125 53.078125 
z
" id="DejaVuSans-115"/>
      <path id="DejaVuSans-32"/>
      <path d="M 10.984375 1.515625 
L 10.984375 10.5 
Q 14.703125 8.734375 18.5 7.8125 
Q 22.3125 6.890625 25.984375 6.890625 
Q 35.75 6.890625 40.890625 13.453125 
Q 46.046875 20.015625 46.78125 33.40625 
Q 43.953125 29.203125 39.59375 26.953125 
Q 35.25 24.703125 29.984375 24.703125 
Q 19.046875 24.703125 12.671875 31.3125 
Q 6.296875 37.9375 6.296875 49.421875 
Q 6.296875 60.640625 12.9375 67.421875 
Q 19.578125 74.21875 30.609375 74.21875 
Q 43.265625 74.21875 49.921875 64.515625 
Q 56.59375 54.828125 56.59375 36.375 
Q 56.59375 19.140625 48.40625 8.859375 
Q 40.234375 -1.421875 26.421875 -1.421875 
Q 22.703125 -1.421875 18.890625 -0.6875 
Q 15.09375 0.046875 10.984375 1.515625 
z
M 30.609375 32.421875 
Q 37.25 32.421875 41.125 36.953125 
Q 45.015625 41.5 45.015625 49.421875 
Q 45.015625 57.28125 41.125 61.84375 
Q 37.25 66.40625 30.609375 66.40625 
Q 23.96875 66.40625 20.09375 61.84375 
Q 16.21875 57.28125 16.21875 49.421875 
Q 16.21875 41.5 20.09375 36.953125 
Q 23.96875 32.421875 30.609375 32.421875 
z
" id="DejaVuSans-57"/>
      <path d="M 25.390625 72.90625 
L 33.6875 72.90625 
L 8.296875 -9.28125 
L 0 -9.28125 
z
" id="DejaVuSans-47"/>
      <path d="M 19.671875 64.796875 
L 19.671875 8.109375 
L 31.59375 8.109375 
Q 46.6875 8.109375 53.6875 14.9375 
Q 60.6875 21.78125 60.6875 36.53125 
Q 60.6875 51.171875 53.6875 57.984375 
Q 46.6875 64.796875 31.59375 64.796875 
z
M 9.8125 72.90625 
L 30.078125 72.90625 
Q 51.265625 72.90625 61.171875 64.09375 
Q 71.09375 55.28125 71.09375 36.53125 
Q 71.09375 17.671875 61.125 8.828125 
Q 51.171875 0 30.078125 0 
L 9.8125 0 
z
" id="DejaVuSans-68"/>
      <path d="M 56.203125 29.59375 
L 56.203125 25.203125 
L 14.890625 25.203125 
Q 15.484375 15.921875 20.484375 11.0625 
Q 25.484375 6.203125 34.421875 6.203125 
Q 39.59375 6.203125 44.453125 7.46875 
Q 49.3125 8.734375 54.109375 11.28125 
L 54.109375 2.78125 
Q 49.265625 0.734375 44.1875 -0.34375 
Q 39.109375 -1.421875 33.890625 -1.421875 
Q 20.796875 -1.421875 13.15625 6.1875 
Q 5.515625 13.8125 5.515625 26.8125 
Q 5.515625 40.234375 12.765625 48.109375 
Q 20.015625 56 32.328125 56 
Q 43.359375 56 49.78125 48.890625 
Q 56.203125 41.796875 56.203125 29.59375 
z
M 47.21875 32.234375 
Q 47.125 39.59375 43.09375 43.984375 
Q 39.0625 48.390625 32.421875 48.390625 
Q 24.90625 48.390625 20.390625 44.140625 
Q 15.875 39.890625 15.1875 32.171875 
z
" id="DejaVuSans-101"/>
      <path d="M 59.515625 10.40625 
L 59.515625 29.984375 
L 43.40625 29.984375 
L 43.40625 38.09375 
L 69.28125 38.09375 
L 69.28125 6.78125 
Q 63.578125 2.734375 56.6875 0.65625 
Q 49.8125 -1.421875 42 -1.421875 
Q 24.90625 -1.421875 15.25 8.5625 
Q 5.609375 18.5625 5.609375 36.375 
Q 5.609375 54.25 15.25 64.234375 
Q 24.90625 74.21875 42 74.21875 
Q 49.125 74.21875 55.546875 72.453125 
Q 61.96875 70.703125 67.390625 67.28125 
L 67.390625 56.78125 
Q 61.921875 61.421875 55.765625 63.765625 
Q 49.609375 66.109375 42.828125 66.109375 
Q 29.4375 66.109375 22.71875 58.640625 
Q 16.015625 51.171875 16.015625 36.375 
Q 16.015625 21.625 22.71875 14.15625 
Q 29.4375 6.6875 42.828125 6.6875 
Q 48.046875 6.6875 52.140625 7.59375 
Q 56.25 8.5 59.515625 10.40625 
z
" id="DejaVuSans-71"/>
      <path d="M 41.109375 46.296875 
Q 39.59375 47.171875 37.8125 47.578125 
Q 36.03125 48 33.890625 48 
Q 26.265625 48 22.1875 43.046875 
Q 18.109375 38.09375 18.109375 28.8125 
L 18.109375 0 
L 9.078125 0 
L 9.078125 54.6875 
L 18.109375 54.6875 
L 18.109375 46.1875 
Q 20.953125 51.171875 25.484375 53.578125 
Q 30.03125 56 36.53125 56 
Q 37.453125 56 38.578125 55.875 
Q 39.703125 55.765625 41.0625 55.515625 
z
" id="DejaVuSans-114"/>
     </defs>
     <use xlink:href="#DejaVuSans-66"/>
     <use x="68.603516" xlink:href="#DejaVuSans-252"/>
     <use x="131.982422" xlink:href="#DejaVuSans-110"/>
     <use x="195.361328" xlink:href="#DejaVuSans-100"/>
     <use x="258.837891" xlink:href="#DejaVuSans-110"/>
     <use x="322.216797" xlink:href="#DejaVuSans-105"/>
     <use x="350" xlink:href="#DejaVuSans-115"/>
     <use x="402.099609" xlink:href="#DejaVuSans-32"/>
     <use x="433.886719" xlink:href="#DejaVuSans-57"/>
     <use x="497.509766" xlink:href="#DejaVuSans-48"/>
     <use x="561.132812" xlink:href="#DejaVuSans-47"/>
     <use x="594.824219" xlink:href="#DejaVuSans-68"/>
     <use x="671.826172" xlink:href="#DejaVuSans-105"/>
     <use x="699.609375" xlink:href="#DejaVuSans-101"/>
     <use x="761.132812" xlink:href="#DejaVuSans-32"/>
     <use x="792.919922" xlink:href="#DejaVuSans-71"/>
     <use x="870.410156" xlink:href="#DejaVuSans-114"/>
     <use x="911.523438" xlink:href="#DejaVuSans-252"/>
     <use x="974.902344" xlink:href="#DejaVuSans-110"/>
     <use x="1038.28125" xlink:href="#DejaVuSans-101"/>
     <use x="1099.804688" xlink:href="#DejaVuSans-110"/>
    </g>
   </g>
  </g>
  <g id="axes_2">
   <g id="patch_15">
    <path d="M 275.748529 215.070384 
L 489.101471 215.070384 
L 489.101471 17.397656 
L 275.748529 17.397656 
z
" style="fill:#ffffff;"/>
   </g>
   <g id="patch_16">
    <path clip-path="url(#p5fb2d33701)" d="M 276.815294 215.070384 
L 284.065343 215.070384 
L 284.065343 73.404929 
L 276.815294 73.404929 
z
" style="stroke:#ffffff;stroke-linejoin:miter;"/>
   </g>
   <g id="patch_17">
    <path clip-path="url(#p5fb2d33701)" d="M 284.065343 215.070384 
L 291.315392 215.070384 
L 291.315392 17.397656 
L 284.065343 17.397656 
z
" style="stroke:#ffffff;stroke-linejoin:miter;"/>
   </g>
   <g id="patch_18">
    <path clip-path="url(#p5fb2d33701)" d="M 291.315392 215.070384 
L 298.565441 215.070384 
L 298.565441 76.699474 
L 291.315392 76.699474 
z
" style="stroke:#ffffff;stroke-linejoin:miter;"/>
   </g>
   <g id="patch_19">
    <path clip-path="url(#p5fb2d33701)" d="M 298.565441 215.070384 
L 305.81549 215.070384 
L 305.81549 96.466747 
L 298.565441 96.466747 
z
" style="stroke:#ffffff;stroke-linejoin:miter;"/>
   </g>
   <g id="patch_20">
    <path clip-path="url(#p5fb2d33701)" d="M 305.81549 215.070384 
L 313.065539 215.070384 
L 313.065539 116.23402 
L 305.81549 116.23402 
z
" style="stroke:#ffffff;stroke-linejoin:miter;"/>
   </g>
   <g id="patch_21">
    <path clip-path="url(#p5fb2d33701)" d="M 313.065539 215.070384 
L 320.315588 215.070384 
L 320.315588 182.124929 
L 313.065539 182.124929 
z
" style="stroke:#ffffff;stroke-linejoin:miter;"/>
   </g>
   <g id="patch_22">
    <path clip-path="url(#p5fb2d33701)" d="M 320.315588 215.070384 
L 327.565637 215.070384 
L 327.565637 168.946747 
L 320.315588 168.946747 
z
" style="stroke:#ffffff;stroke-linejoin:miter;"/>
   </g>
   <g id="patch_23">
    <path clip-path="url(#p5fb2d33701)" d="M 327.565637 215.070384 
L 334.815686 215.070384 
L 334.815686 165.652202 
L 327.565637 165.652202 
z
" style="stroke:#ffffff;stroke-linejoin:miter;"/>
   </g>
   <g id="patch_24">
    <path clip-path="url(#p5fb2d33701)" d="M 334.815686 215.070384 
L 342.065735 215.070384 
L 342.065735 211.775838 
L 334.815686 211.775838 
z
" style="stroke:#ffffff;stroke-linejoin:miter;"/>
   </g>
   <g id="patch_25">
    <path clip-path="url(#p5fb2d33701)" d="M 342.065735 215.070384 
L 349.315784 215.070384 
L 349.315784 211.775838 
L 342.065735 211.775838 
z
" style="stroke:#ffffff;stroke-linejoin:miter;"/>
   </g>
   <g id="patch_26">
    <path clip-path="url(#p5fb2d33701)" d="M 349.315784 215.070384 
L 356.565833 215.070384 
L 356.565833 205.186747 
L 349.315784 205.186747 
z
" style="stroke:#ffffff;stroke-linejoin:miter;"/>
   </g>
   <g id="patch_27">
    <path clip-path="url(#p5fb2d33701)" d="M 356.565833 215.070384 
L 363.815882 215.070384 
L 363.815882 211.775838 
L 356.565833 211.775838 
z
" style="stroke:#ffffff;stroke-linejoin:miter;"/>
   </g>
   <g id="patch_28">
    <path clip-path="url(#p5fb2d33701)" d="M 363.815882 215.070384 
L 371.065931 215.070384 
L 371.065931 215.070384 
L 363.815882 215.070384 
z
" style="stroke:#ffffff;stroke-linejoin:miter;"/>
   </g>
   <g id="patch_29">
    <path clip-path="url(#p5fb2d33701)" d="M 371.065931 215.070384 
L 378.31598 215.070384 
L 378.31598 211.775838 
L 371.065931 211.775838 
z
" style="stroke:#ffffff;stroke-linejoin:miter;"/>
   </g>
   <g id="patch_30">
    <path clip-path="url(#p5fb2d33701)" d="M 378.31598 215.070384 
L 385.566029 215.070384 
L 385.566029 211.775838 
L 378.31598 211.775838 
z
" style="stroke:#ffffff;stroke-linejoin:miter;"/>
   </g>
   <g id="patch_31">
    <path clip-path="url(#p5fb2d33701)" d="M 385.566029 215.070384 
L 392.816078 215.070384 
L 392.816078 208.481293 
L 385.566029 208.481293 
z
" style="stroke:#ffffff;stroke-linejoin:miter;"/>
   </g>
   <g id="patch_32">
    <path clip-path="url(#p5fb2d33701)" d="M 392.816078 215.070384 
L 400.066127 215.070384 
L 400.066127 205.186747 
L 392.816078 205.186747 
z
" style="stroke:#ffffff;stroke-linejoin:miter;"/>
   </g>
   <g id="patch_33">
    <path clip-path="url(#p5fb2d33701)" d="M 400.066127 215.070384 
L 407.316176 215.070384 
L 407.316176 215.070384 
L 400.066127 215.070384 
z
" style="stroke:#ffffff;stroke-linejoin:miter;"/>
   </g>
   <g id="patch_34">
    <path clip-path="url(#p5fb2d33701)" d="M 407.316176 215.070384 
L 414.566225 215.070384 
L 414.566225 215.070384 
L 407.316176 215.070384 
z
" style="stroke:#ffffff;stroke-linejoin:miter;"/>
   </g>
   <g id="patch_35">
    <path clip-path="url(#p5fb2d33701)" d="M 414.566225 215.070384 
L 421.816275 215.070384 
L 421.816275 211.775838 
L 414.566225 211.775838 
z
" style="stroke:#ffffff;stroke-linejoin:miter;"/>
   </g>
   <g id="patch_36">
    <path clip-path="url(#p5fb2d33701)" d="M 421.816275 215.070384 
L 429.066324 215.070384 
L 429.066324 211.775838 
L 421.816275 211.775838 
z
" style="stroke:#ffffff;stroke-linejoin:miter;"/>
   </g>
   <g id="patch_37">
    <path clip-path="url(#p5fb2d33701)" d="M 429.066324 215.070384 
L 436.316373 215.070384 
L 436.316373 215.070384 
L 429.066324 215.070384 
z
" style="stroke:#ffffff;stroke-linejoin:miter;"/>
   </g>
   <g id="patch_38">
    <path clip-path="url(#p5fb2d33701)" d="M 436.316373 215.070384 
L 443.566422 215.070384 
L 443.566422 211.775838 
L 436.316373 211.775838 
z
" style="stroke:#ffffff;stroke-linejoin:miter;"/>
   </g>
   <g id="patch_39">
    <path clip-path="url(#p5fb2d33701)" d="M 443.566422 215.070384 
L 450.816471 215.070384 
L 450.816471 211.775838 
L 443.566422 211.775838 
z
" style="stroke:#ffffff;stroke-linejoin:miter;"/>
   </g>
   <g id="patch_40">
    <path clip-path="url(#p5fb2d33701)" d="M 450.816471 215.070384 
L 458.06652 215.070384 
L 458.06652 215.070384 
L 450.816471 215.070384 
z
" style="stroke:#ffffff;stroke-linejoin:miter;"/>
   </g>
   <g id="patch_41">
    <path clip-path="url(#p5fb2d33701)" d="M 458.06652 215.070384 
L 465.316569 215.070384 
L 465.316569 215.070384 
L 458.06652 215.070384 
z
" style="stroke:#ffffff;stroke-linejoin:miter;"/>
   </g>
   <g id="patch_42">
    <path clip-path="url(#p5fb2d33701)" d="M 465.316569 215.070384 
L 472.566618 215.070384 
L 472.566618 215.070384 
L 465.316569 215.070384 
z
" style="stroke:#ffffff;stroke-linejoin:miter;"/>
   </g>
   <g id="patch_43">
    <path clip-path="url(#p5fb2d33701)" d="M 472.566618 215.070384 
L 479.816667 215.070384 
L 479.816667 215.070384 
L 472.566618 215.070384 
z
" style="stroke:#ffffff;stroke-linejoin:miter;"/>
   </g>
   <g id="patch_44">
    <path clip-path="url(#p5fb2d33701)" d="M 479.816667 215.070384 
L 487.066716 215.070384 
L 487.066716 211.775838 
L 479.816667 211.775838 
z
" style="stroke:#ffffff;stroke-linejoin:miter;"/>
   </g>
   <g id="patch_45">
    <path clip-path="url(#p5fb2d33701)" d="M 487.066716 215.070384 
L 494.316765 215.070384 
L 494.316765 215.070384 
L 487.066716 215.070384 
z
" style="stroke:#ffffff;stroke-linejoin:miter;"/>
   </g>
   <g id="patch_46">
    <path clip-path="url(#p5fb2d33701)" d="M 494.316765 215.070384 
L 501.566814 215.070384 
L 501.566814 215.070384 
L 494.316765 215.070384 
z
" style="stroke:#ffffff;stroke-linejoin:miter;"/>
   </g>
   <g id="patch_47">
    <path clip-path="url(#p5fb2d33701)" d="M 501.566814 215.070384 
L 508.816863 215.070384 
L 508.816863 215.070384 
L 501.566814 215.070384 
z
" style="stroke:#ffffff;stroke-linejoin:miter;"/>
   </g>
   <g id="patch_48">
    <path clip-path="url(#p5fb2d33701)" d="M 508.816863 215.070384 
L 516.066912 215.070384 
L 516.066912 215.070384 
L 508.816863 215.070384 
z
" style="stroke:#ffffff;stroke-linejoin:miter;"/>
   </g>
   <g id="patch_49">
    <path clip-path="url(#p5fb2d33701)" d="M 516.066912 215.070384 
L 523.316961 215.070384 
L 523.316961 215.070384 
L 516.066912 215.070384 
z
" style="stroke:#ffffff;stroke-linejoin:miter;"/>
   </g>
   <g id="patch_50">
    <path clip-path="url(#p5fb2d33701)" d="M 523.316961 215.070384 
L 530.56701 215.070384 
L 530.56701 215.070384 
L 523.316961 215.070384 
z
" style="stroke:#ffffff;stroke-linejoin:miter;"/>
   </g>
   <g id="patch_51">
    <path clip-path="url(#p5fb2d33701)" d="M 530.56701 215.070384 
L 537.817059 215.070384 
L 537.817059 215.070384 
L 530.56701 215.070384 
z
" style="stroke:#ffffff;stroke-linejoin:miter;"/>
   </g>
   <g id="patch_52">
    <path clip-path="url(#p5fb2d33701)" d="M 537.817059 215.070384 
L 545.067108 215.070384 
L 545.067108 215.070384 
L 537.817059 215.070384 
z
" style="stroke:#ffffff;stroke-linejoin:miter;"/>
   </g>
   <g id="patch_53">
    <path clip-path="url(#p5fb2d33701)" d="M 545.067108 215.070384 
L 552.317157 215.070384 
L 552.317157 215.070384 
L 545.067108 215.070384 
z
" style="stroke:#ffffff;stroke-linejoin:miter;"/>
   </g>
   <g id="patch_54">
    <path clip-path="url(#p5fb2d33701)" d="M 552.317157 215.070384 
L 559.567206 215.070384 
L 559.567206 215.070384 
L 552.317157 215.070384 
z
" style="stroke:#ffffff;stroke-linejoin:miter;"/>
   </g>
   <g id="patch_55">
    <path clip-path="url(#p5fb2d33701)" d="M 559.567206 215.070384 
L 566.817255 215.070384 
L 566.817255 215.070384 
L 559.567206 215.070384 
z
" style="stroke:#ffffff;stroke-linejoin:miter;"/>
   </g>
   <g id="patch_56">
    <path clip-path="url(#p5fb2d33701)" d="M 566.817255 215.070384 
L 574.067304 215.070384 
L 574.067304 215.070384 
L 566.817255 215.070384 
z
" style="stroke:#ffffff;stroke-linejoin:miter;"/>
   </g>
   <g id="patch_57">
    <path clip-path="url(#p5fb2d33701)" d="M 574.067304 215.070384 
L 581.317353 215.070384 
L 581.317353 215.070384 
L 574.067304 215.070384 
z
" style="stroke:#ffffff;stroke-linejoin:miter;"/>
   </g>
   <g id="patch_58">
    <path clip-path="url(#p5fb2d33701)" d="M 581.317353 215.070384 
L 588.567402 215.070384 
L 588.567402 215.070384 
L 581.317353 215.070384 
z
" style="stroke:#ffffff;stroke-linejoin:miter;"/>
   </g>
   <g id="patch_59">
    <path clip-path="url(#p5fb2d33701)" d="M 588.567402 215.070384 
L 595.817451 215.070384 
L 595.817451 215.070384 
L 588.567402 215.070384 
z
" style="stroke:#ffffff;stroke-linejoin:miter;"/>
   </g>
   <g id="patch_60">
    <path clip-path="url(#p5fb2d33701)" d="M 595.817451 215.070384 
L 603.0675 215.070384 
L 603.0675 215.070384 
L 595.817451 215.070384 
z
" style="stroke:#ffffff;stroke-linejoin:miter;"/>
   </g>
   <g id="patch_61">
    <path clip-path="url(#p5fb2d33701)" d="M 603.0675 215.070384 
L 610.317549 215.070384 
L 610.317549 215.070384 
L 603.0675 215.070384 
z
" style="stroke:#ffffff;stroke-linejoin:miter;"/>
   </g>
   <g id="patch_62">
    <path clip-path="url(#p5fb2d33701)" d="M 610.317549 215.070384 
L 617.567598 215.070384 
L 617.567598 215.070384 
L 610.317549 215.070384 
z
" style="stroke:#ffffff;stroke-linejoin:miter;"/>
   </g>
   <g id="patch_63">
    <path clip-path="url(#p5fb2d33701)" d="M 617.567598 215.070384 
L 624.817647 215.070384 
L 624.817647 215.070384 
L 617.567598 215.070384 
z
" style="stroke:#ffffff;stroke-linejoin:miter;"/>
   </g>
   <g id="patch_64">
    <path clip-path="url(#p5fb2d33701)" d="M 624.817647 215.070384 
L 632.067696 215.070384 
L 632.067696 215.070384 
L 624.817647 215.070384 
z
" style="stroke:#ffffff;stroke-linejoin:miter;"/>
   </g>
   <g id="patch_65">
    <path clip-path="url(#p5fb2d33701)" d="M 632.067696 215.070384 
L 639.317745 215.070384 
L 639.317745 215.070384 
L 632.067696 215.070384 
z
" style="stroke:#ffffff;stroke-linejoin:miter;"/>
   </g>
   <g id="patch_66">
    <path clip-path="url(#p5fb2d33701)" d="M 639.317745 215.070384 
L 646.567794 215.070384 
L 646.567794 215.070384 
L 639.317745 215.070384 
z
" style="stroke:#ffffff;stroke-linejoin:miter;"/>
   </g>
   <g id="patch_67">
    <path clip-path="url(#p5fb2d33701)" d="M 646.567794 215.070384 
L 653.817843 215.070384 
L 653.817843 215.070384 
L 646.567794 215.070384 
z
" style="stroke:#ffffff;stroke-linejoin:miter;"/>
   </g>
   <g id="patch_68">
    <path clip-path="url(#p5fb2d33701)" d="M 653.817843 215.070384 
L 661.067892 215.070384 
L 661.067892 215.070384 
L 653.817843 215.070384 
z
" style="stroke:#ffffff;stroke-linejoin:miter;"/>
   </g>
   <g id="patch_69">
    <path clip-path="url(#p5fb2d33701)" d="M 661.067892 215.070384 
L 668.317941 215.070384 
L 668.317941 211.775838 
L 661.067892 211.775838 
z
" style="stroke:#ffffff;stroke-linejoin:miter;"/>
   </g>
   <g id="matplotlib.axis_3">
    <g id="xtick_6">
     <g id="line2d_13">
      <g>
       <use style="stroke:#000000;stroke-width:0.8;" x="275.748529" xlink:href="#m5bccd9a9d1" y="215.070384"/>
      </g>
     </g>
     <g id="text_14">
      <!-- 0 -->
      <g transform="translate(272.567279 229.668821)scale(0.1 -0.1)">
       <use xlink:href="#DejaVuSans-48"/>
      </g>
     </g>
    </g>
    <g id="xtick_7">
     <g id="line2d_14">
      <g>
       <use style="stroke:#000000;stroke-width:0.8;" x="329.086765" xlink:href="#m5bccd9a9d1" y="215.070384"/>
      </g>
     </g>
     <g id="text_15">
      <!-- 50 -->
      <g transform="translate(322.724265 229.668821)scale(0.1 -0.1)">
       <use xlink:href="#DejaVuSans-53"/>
       <use x="63.623047" xlink:href="#DejaVuSans-48"/>
      </g>
     </g>
    </g>
    <g id="xtick_8">
     <g id="line2d_15">
      <g>
       <use style="stroke:#000000;stroke-width:0.8;" x="382.425" xlink:href="#m5bccd9a9d1" y="215.070384"/>
      </g>
     </g>
     <g id="text_16">
      <!-- 100 -->
      <g transform="translate(372.88125 229.668821)scale(0.1 -0.1)">
       <use xlink:href="#DejaVuSans-49"/>
       <use x="63.623047" xlink:href="#DejaVuSans-48"/>
       <use x="127.246094" xlink:href="#DejaVuSans-48"/>
      </g>
     </g>
    </g>
    <g id="xtick_9">
     <g id="line2d_16">
      <g>
       <use style="stroke:#000000;stroke-width:0.8;" x="435.763235" xlink:href="#m5bccd9a9d1" y="215.070384"/>
      </g>
     </g>
     <g id="text_17">
      <!-- 150 -->
      <g transform="translate(426.219485 229.668821)scale(0.1 -0.1)">
       <use xlink:href="#DejaVuSans-49"/>
       <use x="63.623047" xlink:href="#DejaVuSans-53"/>
       <use x="127.246094" xlink:href="#DejaVuSans-48"/>
      </g>
     </g>
    </g>
    <g id="xtick_10">
     <g id="line2d_17">
      <g>
       <use style="stroke:#000000;stroke-width:0.8;" x="489.101471" xlink:href="#m5bccd9a9d1" y="215.070384"/>
      </g>
     </g>
     <g id="text_18">
      <!-- 200 -->
      <g transform="translate(479.557721 229.668821)scale(0.1 -0.1)">
       <use xlink:href="#DejaVuSans-50"/>
       <use x="63.623047" xlink:href="#DejaVuSans-48"/>
       <use x="127.246094" xlink:href="#DejaVuSans-48"/>
      </g>
     </g>
    </g>
   </g>
   <g id="matplotlib.axis_4">
    <g id="ytick_8">
     <g id="line2d_18">
      <g>
       <use style="stroke:#000000;stroke-width:0.8;" x="275.748529" xlink:href="#m303181d3a1" y="215.070384"/>
      </g>
     </g>
     <g id="text_19">
      <!-- 0 -->
      <g transform="translate(262.386029 218.869602)scale(0.1 -0.1)">
       <use xlink:href="#DejaVuSans-48"/>
      </g>
     </g>
    </g>
    <g id="ytick_9">
     <g id="line2d_19">
      <g>
       <use style="stroke:#000000;stroke-width:0.8;" x="275.748529" xlink:href="#m303181d3a1" y="182.124929"/>
      </g>
     </g>
     <g id="text_20">
      <!-- 10 -->
      <g transform="translate(256.023529 185.924148)scale(0.1 -0.1)">
       <use xlink:href="#DejaVuSans-49"/>
       <use x="63.623047" xlink:href="#DejaVuSans-48"/>
      </g>
     </g>
    </g>
    <g id="ytick_10">
     <g id="line2d_20">
      <g>
       <use style="stroke:#000000;stroke-width:0.8;" x="275.748529" xlink:href="#m303181d3a1" y="149.179474"/>
      </g>
     </g>
     <g id="text_21">
      <!-- 20 -->
      <g transform="translate(256.023529 152.978693)scale(0.1 -0.1)">
       <use xlink:href="#DejaVuSans-50"/>
       <use x="63.623047" xlink:href="#DejaVuSans-48"/>
      </g>
     </g>
    </g>
    <g id="ytick_11">
     <g id="line2d_21">
      <g>
       <use style="stroke:#000000;stroke-width:0.8;" x="275.748529" xlink:href="#m303181d3a1" y="116.23402"/>
      </g>
     </g>
     <g id="text_22">
      <!-- 30 -->
      <g transform="translate(256.023529 120.033239)scale(0.1 -0.1)">
       <use xlink:href="#DejaVuSans-51"/>
       <use x="63.623047" xlink:href="#DejaVuSans-48"/>
      </g>
     </g>
    </g>
    <g id="ytick_12">
     <g id="line2d_22">
      <g>
       <use style="stroke:#000000;stroke-width:0.8;" x="275.748529" xlink:href="#m303181d3a1" y="83.288565"/>
      </g>
     </g>
     <g id="text_23">
      <!-- 40 -->
      <g transform="translate(256.023529 87.087784)scale(0.1 -0.1)">
       <use xlink:href="#DejaVuSans-52"/>
       <use x="63.623047" xlink:href="#DejaVuSans-48"/>
      </g>
     </g>
    </g>
    <g id="ytick_13">
     <g id="line2d_23">
      <g>
       <use style="stroke:#000000;stroke-width:0.8;" x="275.748529" xlink:href="#m303181d3a1" y="50.343111"/>
      </g>
     </g>
     <g id="text_24">
      <!-- 50 -->
      <g transform="translate(256.023529 54.14233)scale(0.1 -0.1)">
       <use xlink:href="#DejaVuSans-53"/>
       <use x="63.623047" xlink:href="#DejaVuSans-48"/>
      </g>
     </g>
    </g>
    <g id="ytick_14">
     <g id="line2d_24">
      <g>
       <use style="stroke:#000000;stroke-width:0.8;" x="275.748529" xlink:href="#m303181d3a1" y="17.397656"/>
      </g>
     </g>
     <g id="text_25">
      <!-- 60 -->
      <g transform="translate(256.023529 21.196875)scale(0.1 -0.1)">
       <use xlink:href="#DejaVuSans-54"/>
       <use x="63.623047" xlink:href="#DejaVuSans-48"/>
      </g>
     </g>
    </g>
   </g>
   <g id="patch_70">
    <path d="M 275.748529 215.070384 
L 275.748529 17.397656 
" style="fill:none;stroke:#000000;stroke-linecap:square;stroke-linejoin:miter;stroke-width:0.8;"/>
   </g>
   <g id="patch_71">
    <path d="M 489.101471 215.070384 
L 489.101471 17.397656 
" style="fill:none;stroke:#000000;stroke-linecap:square;stroke-linejoin:miter;stroke-width:0.8;"/>
   </g>
   <g id="patch_72">
    <path d="M 275.748529 215.070384 
L 489.101471 215.070384 
" style="fill:none;stroke:#000000;stroke-linecap:square;stroke-linejoin:miter;stroke-width:0.8;"/>
   </g>
   <g id="patch_73">
    <path d="M 275.748529 17.397656 
L 489.101471 17.397656 
" style="fill:none;stroke:#000000;stroke-linecap:square;stroke-linejoin:miter;stroke-width:0.8;"/>
   </g>
   <g id="text_26">
    <!-- CDU/CSU -->
    <g transform="translate(347.909766 11.397656)scale(0.15 -0.15)">
     <defs>
      <path d="M 64.40625 67.28125 
L 64.40625 56.890625 
Q 59.421875 61.53125 53.78125 63.8125 
Q 48.140625 66.109375 41.796875 66.109375 
Q 29.296875 66.109375 22.65625 58.46875 
Q 16.015625 50.828125 16.015625 36.375 
Q 16.015625 21.96875 22.65625 14.328125 
Q 29.296875 6.6875 41.796875 6.6875 
Q 48.140625 6.6875 53.78125 8.984375 
Q 59.421875 11.28125 64.40625 15.921875 
L 64.40625 5.609375 
Q 59.234375 2.09375 53.4375 0.328125 
Q 47.65625 -1.421875 41.21875 -1.421875 
Q 24.65625 -1.421875 15.125 8.703125 
Q 5.609375 18.84375 5.609375 36.375 
Q 5.609375 53.953125 15.125 64.078125 
Q 24.65625 74.21875 41.21875 74.21875 
Q 47.75 74.21875 53.53125 72.484375 
Q 59.328125 70.75 64.40625 67.28125 
z
" id="DejaVuSans-67"/>
      <path d="M 8.6875 72.90625 
L 18.609375 72.90625 
L 18.609375 28.609375 
Q 18.609375 16.890625 22.84375 11.734375 
Q 27.09375 6.59375 36.625 6.59375 
Q 46.09375 6.59375 50.34375 11.734375 
Q 54.59375 16.890625 54.59375 28.609375 
L 54.59375 72.90625 
L 64.5 72.90625 
L 64.5 27.390625 
Q 64.5 13.140625 57.4375 5.859375 
Q 50.390625 -1.421875 36.625 -1.421875 
Q 22.796875 -1.421875 15.734375 5.859375 
Q 8.6875 13.140625 8.6875 27.390625 
z
" id="DejaVuSans-85"/>
      <path d="M 53.515625 70.515625 
L 53.515625 60.890625 
Q 47.90625 63.578125 42.921875 64.890625 
Q 37.9375 66.21875 33.296875 66.21875 
Q 25.25 66.21875 20.875 63.09375 
Q 16.5 59.96875 16.5 54.203125 
Q 16.5 49.359375 19.40625 46.890625 
Q 22.3125 44.4375 30.421875 42.921875 
L 36.375 41.703125 
Q 47.40625 39.59375 52.65625 34.296875 
Q 57.90625 29 57.90625 20.125 
Q 57.90625 9.515625 50.796875 4.046875 
Q 43.703125 -1.421875 29.984375 -1.421875 
Q 24.8125 -1.421875 18.96875 -0.25 
Q 13.140625 0.921875 6.890625 3.21875 
L 6.890625 13.375 
Q 12.890625 10.015625 18.65625 8.296875 
Q 24.421875 6.59375 29.984375 6.59375 
Q 38.421875 6.59375 43.015625 9.90625 
Q 47.609375 13.234375 47.609375 19.390625 
Q 47.609375 24.75 44.3125 27.78125 
Q 41.015625 30.8125 33.5 32.328125 
L 27.484375 33.5 
Q 16.453125 35.6875 11.515625 40.375 
Q 6.59375 45.0625 6.59375 53.421875 
Q 6.59375 63.09375 13.40625 68.65625 
Q 20.21875 74.21875 32.171875 74.21875 
Q 37.3125 74.21875 42.625 73.28125 
Q 47.953125 72.359375 53.515625 70.515625 
z
" id="DejaVuSans-83"/>
     </defs>
     <use xlink:href="#DejaVuSans-67"/>
     <use x="69.824219" xlink:href="#DejaVuSans-68"/>
     <use x="146.826172" xlink:href="#DejaVuSans-85"/>
     <use x="220.019531" xlink:href="#DejaVuSans-47"/>
     <use x="253.710938" xlink:href="#DejaVuSans-67"/>
     <use x="323.535156" xlink:href="#DejaVuSans-83"/>
     <use x="387.011719" xlink:href="#DejaVuSans-85"/>
    </g>
   </g>
  </g>
  <g id="axes_3">
   <g id="patch_74">
    <path d="M 531.772059 215.070384 
L 745.125 215.070384 
L 745.125 17.397656 
L 531.772059 17.397656 
z
" style="fill:#ffffff;"/>
   </g>
   <g id="patch_75">
    <path clip-path="url(#pfc75b96c96)" d="M 532.838824 215.070384 
L 545.506654 215.070384 
L 545.506654 168.946747 
L 532.838824 168.946747 
z
" style="fill:#009ee0;stroke:#000000;stroke-linejoin:miter;"/>
   </g>
   <g id="patch_76">
    <path clip-path="url(#pfc75b96c96)" d="M 545.506654 215.070384 
L 558.174485 215.070384 
L 558.174485 152.47402 
L 545.506654 152.47402 
z
" style="fill:#009ee0;stroke:#000000;stroke-linejoin:miter;"/>
   </g>
   <g id="patch_77">
    <path clip-path="url(#pfc75b96c96)" d="M 558.174485 215.070384 
L 570.842316 215.070384 
L 570.842316 142.590384 
L 558.174485 142.590384 
z
" style="fill:#009ee0;stroke:#000000;stroke-linejoin:miter;"/>
   </g>
   <g id="patch_78">
    <path clip-path="url(#pfc75b96c96)" d="M 570.842316 215.070384 
L 583.510147 215.070384 
L 583.510147 168.946747 
L 570.842316 168.946747 
z
" style="fill:#009ee0;stroke:#000000;stroke-linejoin:miter;"/>
   </g>
   <g id="patch_79">
    <path clip-path="url(#pfc75b96c96)" d="M 583.510147 215.070384 
L 596.177978 215.070384 
L 596.177978 178.830384 
L 583.510147 178.830384 
z
" style="fill:#009ee0;stroke:#000000;stroke-linejoin:miter;"/>
   </g>
   <g id="patch_80">
    <path clip-path="url(#pfc75b96c96)" d="M 596.177978 215.070384 
L 608.845809 215.070384 
L 608.845809 192.008565 
L 596.177978 192.008565 
z
" style="fill:#009ee0;stroke:#000000;stroke-linejoin:miter;"/>
   </g>
   <g id="patch_81">
    <path clip-path="url(#pfc75b96c96)" d="M 608.845809 215.070384 
L 621.51364 215.070384 
L 621.51364 195.303111 
L 608.845809 195.303111 
z
" style="fill:#009ee0;stroke:#000000;stroke-linejoin:miter;"/>
   </g>
   <g id="patch_82">
    <path clip-path="url(#pfc75b96c96)" d="M 621.51364 215.070384 
L 634.181471 215.070384 
L 634.181471 211.775838 
L 621.51364 211.775838 
z
" style="fill:#009ee0;stroke:#000000;stroke-linejoin:miter;"/>
   </g>
   <g id="matplotlib.axis_5">
    <g id="xtick_11">
     <g id="line2d_25">
      <g>
       <use style="stroke:#000000;stroke-width:0.8;" x="531.772059" xlink:href="#m5bccd9a9d1" y="215.070384"/>
      </g>
     </g>
     <g id="text_27">
      <!-- 0 -->
      <g transform="translate(528.590809 229.668821)scale(0.1 -0.1)">
       <use xlink:href="#DejaVuSans-48"/>
      </g>
     </g>
    </g>
    <g id="xtick_12">
     <g id="line2d_26">
      <g>
       <use style="stroke:#000000;stroke-width:0.8;" x="585.110294" xlink:href="#m5bccd9a9d1" y="215.070384"/>
      </g>
     </g>
     <g id="text_28">
      <!-- 50 -->
      <g transform="translate(578.747794 229.668821)scale(0.1 -0.1)">
       <use xlink:href="#DejaVuSans-53"/>
       <use x="63.623047" xlink:href="#DejaVuSans-48"/>
      </g>
     </g>
    </g>
    <g id="xtick_13">
     <g id="line2d_27">
      <g>
       <use style="stroke:#000000;stroke-width:0.8;" x="638.448529" xlink:href="#m5bccd9a9d1" y="215.070384"/>
      </g>
     </g>
     <g id="text_29">
      <!-- 100 -->
      <g transform="translate(628.904779 229.668821)scale(0.1 -0.1)">
       <use xlink:href="#DejaVuSans-49"/>
       <use x="63.623047" xlink:href="#DejaVuSans-48"/>
       <use x="127.246094" xlink:href="#DejaVuSans-48"/>
      </g>
     </g>
    </g>
    <g id="xtick_14">
     <g id="line2d_28">
      <g>
       <use style="stroke:#000000;stroke-width:0.8;" x="691.786765" xlink:href="#m5bccd9a9d1" y="215.070384"/>
      </g>
     </g>
     <g id="text_30">
      <!-- 150 -->
      <g transform="translate(682.243015 229.668821)scale(0.1 -0.1)">
       <use xlink:href="#DejaVuSans-49"/>
       <use x="63.623047" xlink:href="#DejaVuSans-53"/>
       <use x="127.246094" xlink:href="#DejaVuSans-48"/>
      </g>
     </g>
    </g>
    <g id="xtick_15">
     <g id="line2d_29">
      <g>
       <use style="stroke:#000000;stroke-width:0.8;" x="745.125" xlink:href="#m5bccd9a9d1" y="215.070384"/>
      </g>
     </g>
     <g id="text_31">
      <!-- 200 -->
      <g transform="translate(735.58125 229.668821)scale(0.1 -0.1)">
       <use xlink:href="#DejaVuSans-50"/>
       <use x="63.623047" xlink:href="#DejaVuSans-48"/>
       <use x="127.246094" xlink:href="#DejaVuSans-48"/>
      </g>
     </g>
    </g>
   </g>
   <g id="matplotlib.axis_6">
    <g id="ytick_15">
     <g id="line2d_30">
      <g>
       <use style="stroke:#000000;stroke-width:0.8;" x="531.772059" xlink:href="#m303181d3a1" y="215.070384"/>
      </g>
     </g>
     <g id="text_32">
      <!-- 0 -->
      <g transform="translate(518.409559 218.869602)scale(0.1 -0.1)">
       <use xlink:href="#DejaVuSans-48"/>
      </g>
     </g>
    </g>
    <g id="ytick_16">
     <g id="line2d_31">
      <g>
       <use style="stroke:#000000;stroke-width:0.8;" x="531.772059" xlink:href="#m303181d3a1" y="182.124929"/>
      </g>
     </g>
     <g id="text_33">
      <!-- 10 -->
      <g transform="translate(512.047059 185.924148)scale(0.1 -0.1)">
       <use xlink:href="#DejaVuSans-49"/>
       <use x="63.623047" xlink:href="#DejaVuSans-48"/>
      </g>
     </g>
    </g>
    <g id="ytick_17">
     <g id="line2d_32">
      <g>
       <use style="stroke:#000000;stroke-width:0.8;" x="531.772059" xlink:href="#m303181d3a1" y="149.179474"/>
      </g>
     </g>
     <g id="text_34">
      <!-- 20 -->
      <g transform="translate(512.047059 152.978693)scale(0.1 -0.1)">
       <use xlink:href="#DejaVuSans-50"/>
       <use x="63.623047" xlink:href="#DejaVuSans-48"/>
      </g>
     </g>
    </g>
    <g id="ytick_18">
     <g id="line2d_33">
      <g>
       <use style="stroke:#000000;stroke-width:0.8;" x="531.772059" xlink:href="#m303181d3a1" y="116.23402"/>
      </g>
     </g>
     <g id="text_35">
      <!-- 30 -->
      <g transform="translate(512.047059 120.033239)scale(0.1 -0.1)">
       <use xlink:href="#DejaVuSans-51"/>
       <use x="63.623047" xlink:href="#DejaVuSans-48"/>
      </g>
     </g>
    </g>
    <g id="ytick_19">
     <g id="line2d_34">
      <g>
       <use style="stroke:#000000;stroke-width:0.8;" x="531.772059" xlink:href="#m303181d3a1" y="83.288565"/>
      </g>
     </g>
     <g id="text_36">
      <!-- 40 -->
      <g transform="translate(512.047059 87.087784)scale(0.1 -0.1)">
       <use xlink:href="#DejaVuSans-52"/>
       <use x="63.623047" xlink:href="#DejaVuSans-48"/>
      </g>
     </g>
    </g>
    <g id="ytick_20">
     <g id="line2d_35">
      <g>
       <use style="stroke:#000000;stroke-width:0.8;" x="531.772059" xlink:href="#m303181d3a1" y="50.343111"/>
      </g>
     </g>
     <g id="text_37">
      <!-- 50 -->
      <g transform="translate(512.047059 54.14233)scale(0.1 -0.1)">
       <use xlink:href="#DejaVuSans-53"/>
       <use x="63.623047" xlink:href="#DejaVuSans-48"/>
      </g>
     </g>
    </g>
    <g id="ytick_21">
     <g id="line2d_36">
      <g>
       <use style="stroke:#000000;stroke-width:0.8;" x="531.772059" xlink:href="#m303181d3a1" y="17.397656"/>
      </g>
     </g>
     <g id="text_38">
      <!-- 60 -->
      <g transform="translate(512.047059 21.196875)scale(0.1 -0.1)">
       <use xlink:href="#DejaVuSans-54"/>
       <use x="63.623047" xlink:href="#DejaVuSans-48"/>
      </g>
     </g>
    </g>
   </g>
   <g id="patch_83">
    <path d="M 531.772059 215.070384 
L 531.772059 17.397656 
" style="fill:none;stroke:#000000;stroke-linecap:square;stroke-linejoin:miter;stroke-width:0.8;"/>
   </g>
   <g id="patch_84">
    <path d="M 745.125 215.070384 
L 745.125 17.397656 
" style="fill:none;stroke:#000000;stroke-linecap:square;stroke-linejoin:miter;stroke-width:0.8;"/>
   </g>
   <g id="patch_85">
    <path d="M 531.772059 215.070384 
L 745.125 215.070384 
" style="fill:none;stroke:#000000;stroke-linecap:square;stroke-linejoin:miter;stroke-width:0.8;"/>
   </g>
   <g id="patch_86">
    <path d="M 531.772059 17.397656 
L 745.125 17.397656 
" style="fill:none;stroke:#000000;stroke-linecap:square;stroke-linejoin:miter;stroke-width:0.8;"/>
   </g>
   <g id="text_39">
    <!-- Afd -->
    <g transform="translate(626.188373 11.397656)scale(0.15 -0.15)">
     <defs>
      <path d="M 34.1875 63.1875 
L 20.796875 26.90625 
L 47.609375 26.90625 
z
M 28.609375 72.90625 
L 39.796875 72.90625 
L 67.578125 0 
L 57.328125 0 
L 50.6875 18.703125 
L 17.828125 18.703125 
L 11.1875 0 
L 0.78125 0 
z
" id="DejaVuSans-65"/>
      <path d="M 37.109375 75.984375 
L 37.109375 68.5 
L 28.515625 68.5 
Q 23.6875 68.5 21.796875 66.546875 
Q 19.921875 64.59375 19.921875 59.515625 
L 19.921875 54.6875 
L 34.71875 54.6875 
L 34.71875 47.703125 
L 19.921875 47.703125 
L 19.921875 0 
L 10.890625 0 
L 10.890625 47.703125 
L 2.296875 47.703125 
L 2.296875 54.6875 
L 10.890625 54.6875 
L 10.890625 58.5 
Q 10.890625 67.625 15.140625 71.796875 
Q 19.390625 75.984375 28.609375 75.984375 
z
" id="DejaVuSans-102"/>
     </defs>
     <use xlink:href="#DejaVuSans-65"/>
     <use x="64.783203" xlink:href="#DejaVuSans-102"/>
     <use x="99.988281" xlink:href="#DejaVuSans-100"/>
    </g>
   </g>
  </g>
  <g id="axes_4">
   <g id="patch_87">
    <path d="M 19.725 452.277656 
L 233.077941 452.277656 
L 233.077941 254.604929 
L 19.725 254.604929 
z
" style="fill:#ffffff;"/>
   </g>
   <g id="patch_88">
    <path clip-path="url(#p23c021e9c6)" d="M 20.791765 452.277656 
L 34.126324 452.277656 
L 34.126324 406.15402 
L 20.791765 406.15402 
z
" style="fill:#800080;stroke:#000000;stroke-linejoin:miter;"/>
   </g>
   <g id="patch_89">
    <path clip-path="url(#p23c021e9c6)" d="M 34.126324 452.277656 
L 47.460882 452.277656 
L 47.460882 409.448565 
L 34.126324 409.448565 
z
" style="fill:#800080;stroke:#000000;stroke-linejoin:miter;"/>
   </g>
   <g id="patch_90">
    <path clip-path="url(#p23c021e9c6)" d="M 47.460882 452.277656 
L 60.795441 452.277656 
L 60.795441 389.681293 
L 47.460882 389.681293 
z
" style="fill:#800080;stroke:#000000;stroke-linejoin:miter;"/>
   </g>
   <g id="patch_91">
    <path clip-path="url(#p23c021e9c6)" d="M 60.795441 452.277656 
L 74.13 452.277656 
L 74.13 419.332202 
L 60.795441 419.332202 
z
" style="fill:#800080;stroke:#000000;stroke-linejoin:miter;"/>
   </g>
   <g id="patch_92">
    <path clip-path="url(#p23c021e9c6)" d="M 74.13 452.277656 
L 87.464559 452.277656 
L 87.464559 409.448565 
L 74.13 409.448565 
z
" style="fill:#800080;stroke:#000000;stroke-linejoin:miter;"/>
   </g>
   <g id="patch_93">
    <path clip-path="url(#p23c021e9c6)" d="M 87.464559 452.277656 
L 100.799118 452.277656 
L 100.799118 448.983111 
L 87.464559 448.983111 
z
" style="fill:#800080;stroke:#000000;stroke-linejoin:miter;"/>
   </g>
   <g id="patch_94">
    <path clip-path="url(#p23c021e9c6)" d="M 100.799118 452.277656 
L 114.133676 452.277656 
L 114.133676 448.983111 
L 100.799118 448.983111 
z
" style="fill:#800080;stroke:#000000;stroke-linejoin:miter;"/>
   </g>
   <g id="patch_95">
    <path clip-path="url(#p23c021e9c6)" d="M 114.133676 452.277656 
L 127.468235 452.277656 
L 127.468235 442.39402 
L 114.133676 442.39402 
z
" style="fill:#800080;stroke:#000000;stroke-linejoin:miter;"/>
   </g>
   <g id="matplotlib.axis_7">
    <g id="xtick_16">
     <g id="line2d_37">
      <g>
       <use style="stroke:#000000;stroke-width:0.8;" x="19.725" xlink:href="#m5bccd9a9d1" y="452.277656"/>
      </g>
     </g>
     <g id="text_40">
      <!-- 0 -->
      <g transform="translate(16.54375 466.876094)scale(0.1 -0.1)">
       <use xlink:href="#DejaVuSans-48"/>
      </g>
     </g>
    </g>
    <g id="xtick_17">
     <g id="line2d_38">
      <g>
       <use style="stroke:#000000;stroke-width:0.8;" x="73.063235" xlink:href="#m5bccd9a9d1" y="452.277656"/>
      </g>
     </g>
     <g id="text_41">
      <!-- 50 -->
      <g transform="translate(66.700735 466.876094)scale(0.1 -0.1)">
       <use xlink:href="#DejaVuSans-53"/>
       <use x="63.623047" xlink:href="#DejaVuSans-48"/>
      </g>
     </g>
    </g>
    <g id="xtick_18">
     <g id="line2d_39">
      <g>
       <use style="stroke:#000000;stroke-width:0.8;" x="126.401471" xlink:href="#m5bccd9a9d1" y="452.277656"/>
      </g>
     </g>
     <g id="text_42">
      <!-- 100 -->
      <g transform="translate(116.857721 466.876094)scale(0.1 -0.1)">
       <use xlink:href="#DejaVuSans-49"/>
       <use x="63.623047" xlink:href="#DejaVuSans-48"/>
       <use x="127.246094" xlink:href="#DejaVuSans-48"/>
      </g>
     </g>
    </g>
    <g id="xtick_19">
     <g id="line2d_40">
      <g>
       <use style="stroke:#000000;stroke-width:0.8;" x="179.739706" xlink:href="#m5bccd9a9d1" y="452.277656"/>
      </g>
     </g>
     <g id="text_43">
      <!-- 150 -->
      <g transform="translate(170.195956 466.876094)scale(0.1 -0.1)">
       <use xlink:href="#DejaVuSans-49"/>
       <use x="63.623047" xlink:href="#DejaVuSans-53"/>
       <use x="127.246094" xlink:href="#DejaVuSans-48"/>
      </g>
     </g>
    </g>
    <g id="xtick_20">
     <g id="line2d_41">
      <g>
       <use style="stroke:#000000;stroke-width:0.8;" x="233.077941" xlink:href="#m5bccd9a9d1" y="452.277656"/>
      </g>
     </g>
     <g id="text_44">
      <!-- 200 -->
      <g transform="translate(223.534191 466.876094)scale(0.1 -0.1)">
       <use xlink:href="#DejaVuSans-50"/>
       <use x="63.623047" xlink:href="#DejaVuSans-48"/>
       <use x="127.246094" xlink:href="#DejaVuSans-48"/>
      </g>
     </g>
    </g>
   </g>
   <g id="matplotlib.axis_8">
    <g id="ytick_22">
     <g id="line2d_42">
      <g>
       <use style="stroke:#000000;stroke-width:0.8;" x="19.725" xlink:href="#m303181d3a1" y="452.277656"/>
      </g>
     </g>
     <g id="text_45">
      <!-- 0 -->
      <g transform="translate(6.3625 456.076875)scale(0.1 -0.1)">
       <use xlink:href="#DejaVuSans-48"/>
      </g>
     </g>
    </g>
    <g id="ytick_23">
     <g id="line2d_43">
      <g>
       <use style="stroke:#000000;stroke-width:0.8;" x="19.725" xlink:href="#m303181d3a1" y="419.332202"/>
      </g>
     </g>
     <g id="text_46">
      <!-- 10 -->
      <g transform="translate(-0 423.13142)scale(0.1 -0.1)">
       <use xlink:href="#DejaVuSans-49"/>
       <use x="63.623047" xlink:href="#DejaVuSans-48"/>
      </g>
     </g>
    </g>
    <g id="ytick_24">
     <g id="line2d_44">
      <g>
       <use style="stroke:#000000;stroke-width:0.8;" x="19.725" xlink:href="#m303181d3a1" y="386.386747"/>
      </g>
     </g>
     <g id="text_47">
      <!-- 20 -->
      <g transform="translate(-0 390.185966)scale(0.1 -0.1)">
       <use xlink:href="#DejaVuSans-50"/>
       <use x="63.623047" xlink:href="#DejaVuSans-48"/>
      </g>
     </g>
    </g>
    <g id="ytick_25">
     <g id="line2d_45">
      <g>
       <use style="stroke:#000000;stroke-width:0.8;" x="19.725" xlink:href="#m303181d3a1" y="353.441293"/>
      </g>
     </g>
     <g id="text_48">
      <!-- 30 -->
      <g transform="translate(-0 357.240511)scale(0.1 -0.1)">
       <use xlink:href="#DejaVuSans-51"/>
       <use x="63.623047" xlink:href="#DejaVuSans-48"/>
      </g>
     </g>
    </g>
    <g id="ytick_26">
     <g id="line2d_46">
      <g>
       <use style="stroke:#000000;stroke-width:0.8;" x="19.725" xlink:href="#m303181d3a1" y="320.495838"/>
      </g>
     </g>
     <g id="text_49">
      <!-- 40 -->
      <g transform="translate(-0 324.295057)scale(0.1 -0.1)">
       <use xlink:href="#DejaVuSans-52"/>
       <use x="63.623047" xlink:href="#DejaVuSans-48"/>
      </g>
     </g>
    </g>
    <g id="ytick_27">
     <g id="line2d_47">
      <g>
       <use style="stroke:#000000;stroke-width:0.8;" x="19.725" xlink:href="#m303181d3a1" y="287.550384"/>
      </g>
     </g>
     <g id="text_50">
      <!-- 50 -->
      <g transform="translate(-0 291.349602)scale(0.1 -0.1)">
       <use xlink:href="#DejaVuSans-53"/>
       <use x="63.623047" xlink:href="#DejaVuSans-48"/>
      </g>
     </g>
    </g>
    <g id="ytick_28">
     <g id="line2d_48">
      <g>
       <use style="stroke:#000000;stroke-width:0.8;" x="19.725" xlink:href="#m303181d3a1" y="254.604929"/>
      </g>
     </g>
     <g id="text_51">
      <!-- 60 -->
      <g transform="translate(-0 258.404148)scale(0.1 -0.1)">
       <use xlink:href="#DejaVuSans-54"/>
       <use x="63.623047" xlink:href="#DejaVuSans-48"/>
      </g>
     </g>
    </g>
   </g>
   <g id="patch_96">
    <path d="M 19.725 452.277656 
L 19.725 254.604929 
" style="fill:none;stroke:#000000;stroke-linecap:square;stroke-linejoin:miter;stroke-width:0.8;"/>
   </g>
   <g id="patch_97">
    <path d="M 233.077941 452.277656 
L 233.077941 254.604929 
" style="fill:none;stroke:#000000;stroke-linecap:square;stroke-linejoin:miter;stroke-width:0.8;"/>
   </g>
   <g id="patch_98">
    <path d="M 19.725 452.277656 
L 233.077941 452.277656 
" style="fill:none;stroke:#000000;stroke-linecap:square;stroke-linejoin:miter;stroke-width:0.8;"/>
   </g>
   <g id="patch_99">
    <path d="M 19.725 254.604929 
L 233.077941 254.604929 
" style="fill:none;stroke:#000000;stroke-linecap:square;stroke-linejoin:miter;stroke-width:0.8;"/>
   </g>
   <g id="text_52">
    <!-- Die Linke -->
    <g transform="translate(91.842877 248.604929)scale(0.15 -0.15)">
     <defs>
      <path d="M 9.8125 72.90625 
L 19.671875 72.90625 
L 19.671875 8.296875 
L 55.171875 8.296875 
L 55.171875 0 
L 9.8125 0 
z
" id="DejaVuSans-76"/>
      <path d="M 9.078125 75.984375 
L 18.109375 75.984375 
L 18.109375 31.109375 
L 44.921875 54.6875 
L 56.390625 54.6875 
L 27.390625 29.109375 
L 57.625 0 
L 45.90625 0 
L 18.109375 26.703125 
L 18.109375 0 
L 9.078125 0 
z
" id="DejaVuSans-107"/>
     </defs>
     <use xlink:href="#DejaVuSans-68"/>
     <use x="77.001953" xlink:href="#DejaVuSans-105"/>
     <use x="104.785156" xlink:href="#DejaVuSans-101"/>
     <use x="166.308594" xlink:href="#DejaVuSans-32"/>
     <use x="198.095703" xlink:href="#DejaVuSans-76"/>
     <use x="253.808594" xlink:href="#DejaVuSans-105"/>
     <use x="281.591797" xlink:href="#DejaVuSans-110"/>
     <use x="344.970703" xlink:href="#DejaVuSans-107"/>
     <use x="399.255859" xlink:href="#DejaVuSans-101"/>
    </g>
   </g>
  </g>
  <g id="axes_5">
   <g id="patch_100">
    <path d="M 275.748529 452.277656 
L 489.101471 452.277656 
L 489.101471 254.604929 
L 275.748529 254.604929 
z
" style="fill:#ffffff;"/>
   </g>
   <g id="patch_101">
    <path clip-path="url(#p56b278c99f)" d="M 276.815294 452.277656 
L 288.683051 452.277656 
L 288.683051 399.564929 
L 276.815294 399.564929 
z
" style="fill:#ffed00;stroke:#000000;stroke-linejoin:miter;"/>
   </g>
   <g id="patch_102">
    <path clip-path="url(#p56b278c99f)" d="M 288.683051 452.277656 
L 300.550809 452.277656 
L 300.550809 392.975838 
L 288.683051 392.975838 
z
" style="fill:#ffed00;stroke:#000000;stroke-linejoin:miter;"/>
   </g>
   <g id="patch_103">
    <path clip-path="url(#p56b278c99f)" d="M 300.550809 452.277656 
L 312.418566 452.277656 
L 312.418566 406.15402 
L 300.550809 406.15402 
z
" style="fill:#ffed00;stroke:#000000;stroke-linejoin:miter;"/>
   </g>
   <g id="patch_104">
    <path clip-path="url(#p56b278c99f)" d="M 312.418566 452.277656 
L 324.286324 452.277656 
L 324.286324 392.975838 
L 312.418566 392.975838 
z
" style="fill:#ffed00;stroke:#000000;stroke-linejoin:miter;"/>
   </g>
   <g id="patch_105">
    <path clip-path="url(#p56b278c99f)" d="M 324.286324 452.277656 
L 336.154081 452.277656 
L 336.154081 419.332202 
L 324.286324 419.332202 
z
" style="fill:#ffed00;stroke:#000000;stroke-linejoin:miter;"/>
   </g>
   <g id="patch_106">
    <path clip-path="url(#p56b278c99f)" d="M 336.154081 452.277656 
L 348.021838 452.277656 
L 348.021838 412.743111 
L 336.154081 412.743111 
z
" style="fill:#ffed00;stroke:#000000;stroke-linejoin:miter;"/>
   </g>
   <g id="patch_107">
    <path clip-path="url(#p56b278c99f)" d="M 348.021838 452.277656 
L 359.889596 452.277656 
L 359.889596 445.688565 
L 348.021838 445.688565 
z
" style="fill:#ffed00;stroke:#000000;stroke-linejoin:miter;"/>
   </g>
   <g id="patch_108">
    <path clip-path="url(#p56b278c99f)" d="M 359.889596 452.277656 
L 371.757353 452.277656 
L 371.757353 448.983111 
L 359.889596 448.983111 
z
" style="fill:#ffed00;stroke:#000000;stroke-linejoin:miter;"/>
   </g>
   <g id="matplotlib.axis_9">
    <g id="xtick_21">
     <g id="line2d_49">
      <g>
       <use style="stroke:#000000;stroke-width:0.8;" x="275.748529" xlink:href="#m5bccd9a9d1" y="452.277656"/>
      </g>
     </g>
     <g id="text_53">
      <!-- 0 -->
      <g transform="translate(272.567279 466.876094)scale(0.1 -0.1)">
       <use xlink:href="#DejaVuSans-48"/>
      </g>
     </g>
    </g>
    <g id="xtick_22">
     <g id="line2d_50">
      <g>
       <use style="stroke:#000000;stroke-width:0.8;" x="329.086765" xlink:href="#m5bccd9a9d1" y="452.277656"/>
      </g>
     </g>
     <g id="text_54">
      <!-- 50 -->
      <g transform="translate(322.724265 466.876094)scale(0.1 -0.1)">
       <use xlink:href="#DejaVuSans-53"/>
       <use x="63.623047" xlink:href="#DejaVuSans-48"/>
      </g>
     </g>
    </g>
    <g id="xtick_23">
     <g id="line2d_51">
      <g>
       <use style="stroke:#000000;stroke-width:0.8;" x="382.425" xlink:href="#m5bccd9a9d1" y="452.277656"/>
      </g>
     </g>
     <g id="text_55">
      <!-- 100 -->
      <g transform="translate(372.88125 466.876094)scale(0.1 -0.1)">
       <use xlink:href="#DejaVuSans-49"/>
       <use x="63.623047" xlink:href="#DejaVuSans-48"/>
       <use x="127.246094" xlink:href="#DejaVuSans-48"/>
      </g>
     </g>
    </g>
    <g id="xtick_24">
     <g id="line2d_52">
      <g>
       <use style="stroke:#000000;stroke-width:0.8;" x="435.763235" xlink:href="#m5bccd9a9d1" y="452.277656"/>
      </g>
     </g>
     <g id="text_56">
      <!-- 150 -->
      <g transform="translate(426.219485 466.876094)scale(0.1 -0.1)">
       <use xlink:href="#DejaVuSans-49"/>
       <use x="63.623047" xlink:href="#DejaVuSans-53"/>
       <use x="127.246094" xlink:href="#DejaVuSans-48"/>
      </g>
     </g>
    </g>
    <g id="xtick_25">
     <g id="line2d_53">
      <g>
       <use style="stroke:#000000;stroke-width:0.8;" x="489.101471" xlink:href="#m5bccd9a9d1" y="452.277656"/>
      </g>
     </g>
     <g id="text_57">
      <!-- 200 -->
      <g transform="translate(479.557721 466.876094)scale(0.1 -0.1)">
       <use xlink:href="#DejaVuSans-50"/>
       <use x="63.623047" xlink:href="#DejaVuSans-48"/>
       <use x="127.246094" xlink:href="#DejaVuSans-48"/>
      </g>
     </g>
    </g>
   </g>
   <g id="matplotlib.axis_10">
    <g id="ytick_29">
     <g id="line2d_54">
      <g>
       <use style="stroke:#000000;stroke-width:0.8;" x="275.748529" xlink:href="#m303181d3a1" y="452.277656"/>
      </g>
     </g>
     <g id="text_58">
      <!-- 0 -->
      <g transform="translate(262.386029 456.076875)scale(0.1 -0.1)">
       <use xlink:href="#DejaVuSans-48"/>
      </g>
     </g>
    </g>
    <g id="ytick_30">
     <g id="line2d_55">
      <g>
       <use style="stroke:#000000;stroke-width:0.8;" x="275.748529" xlink:href="#m303181d3a1" y="419.332202"/>
      </g>
     </g>
     <g id="text_59">
      <!-- 10 -->
      <g transform="translate(256.023529 423.13142)scale(0.1 -0.1)">
       <use xlink:href="#DejaVuSans-49"/>
       <use x="63.623047" xlink:href="#DejaVuSans-48"/>
      </g>
     </g>
    </g>
    <g id="ytick_31">
     <g id="line2d_56">
      <g>
       <use style="stroke:#000000;stroke-width:0.8;" x="275.748529" xlink:href="#m303181d3a1" y="386.386747"/>
      </g>
     </g>
     <g id="text_60">
      <!-- 20 -->
      <g transform="translate(256.023529 390.185966)scale(0.1 -0.1)">
       <use xlink:href="#DejaVuSans-50"/>
       <use x="63.623047" xlink:href="#DejaVuSans-48"/>
      </g>
     </g>
    </g>
    <g id="ytick_32">
     <g id="line2d_57">
      <g>
       <use style="stroke:#000000;stroke-width:0.8;" x="275.748529" xlink:href="#m303181d3a1" y="353.441293"/>
      </g>
     </g>
     <g id="text_61">
      <!-- 30 -->
      <g transform="translate(256.023529 357.240511)scale(0.1 -0.1)">
       <use xlink:href="#DejaVuSans-51"/>
       <use x="63.623047" xlink:href="#DejaVuSans-48"/>
      </g>
     </g>
    </g>
    <g id="ytick_33">
     <g id="line2d_58">
      <g>
       <use style="stroke:#000000;stroke-width:0.8;" x="275.748529" xlink:href="#m303181d3a1" y="320.495838"/>
      </g>
     </g>
     <g id="text_62">
      <!-- 40 -->
      <g transform="translate(256.023529 324.295057)scale(0.1 -0.1)">
       <use xlink:href="#DejaVuSans-52"/>
       <use x="63.623047" xlink:href="#DejaVuSans-48"/>
      </g>
     </g>
    </g>
    <g id="ytick_34">
     <g id="line2d_59">
      <g>
       <use style="stroke:#000000;stroke-width:0.8;" x="275.748529" xlink:href="#m303181d3a1" y="287.550384"/>
      </g>
     </g>
     <g id="text_63">
      <!-- 50 -->
      <g transform="translate(256.023529 291.349602)scale(0.1 -0.1)">
       <use xlink:href="#DejaVuSans-53"/>
       <use x="63.623047" xlink:href="#DejaVuSans-48"/>
      </g>
     </g>
    </g>
    <g id="ytick_35">
     <g id="line2d_60">
      <g>
       <use style="stroke:#000000;stroke-width:0.8;" x="275.748529" xlink:href="#m303181d3a1" y="254.604929"/>
      </g>
     </g>
     <g id="text_64">
      <!-- 60 -->
      <g transform="translate(256.023529 258.404148)scale(0.1 -0.1)">
       <use xlink:href="#DejaVuSans-54"/>
       <use x="63.623047" xlink:href="#DejaVuSans-48"/>
      </g>
     </g>
    </g>
   </g>
   <g id="patch_109">
    <path d="M 275.748529 452.277656 
L 275.748529 254.604929 
" style="fill:none;stroke:#000000;stroke-linecap:square;stroke-linejoin:miter;stroke-width:0.8;"/>
   </g>
   <g id="patch_110">
    <path d="M 489.101471 452.277656 
L 489.101471 254.604929 
" style="fill:none;stroke:#000000;stroke-linecap:square;stroke-linejoin:miter;stroke-width:0.8;"/>
   </g>
   <g id="patch_111">
    <path d="M 275.748529 452.277656 
L 489.101471 452.277656 
" style="fill:none;stroke:#000000;stroke-linecap:square;stroke-linejoin:miter;stroke-width:0.8;"/>
   </g>
   <g id="patch_112">
    <path d="M 275.748529 254.604929 
L 489.101471 254.604929 
" style="fill:none;stroke:#000000;stroke-linecap:square;stroke-linejoin:miter;stroke-width:0.8;"/>
   </g>
   <g id="text_65">
    <!-- FDP -->
    <g transform="translate(367.814063 248.604929)scale(0.15 -0.15)">
     <defs>
      <path d="M 9.8125 72.90625 
L 51.703125 72.90625 
L 51.703125 64.59375 
L 19.671875 64.59375 
L 19.671875 43.109375 
L 48.578125 43.109375 
L 48.578125 34.8125 
L 19.671875 34.8125 
L 19.671875 0 
L 9.8125 0 
z
" id="DejaVuSans-70"/>
      <path d="M 19.671875 64.796875 
L 19.671875 37.40625 
L 32.078125 37.40625 
Q 38.96875 37.40625 42.71875 40.96875 
Q 46.484375 44.53125 46.484375 51.125 
Q 46.484375 57.671875 42.71875 61.234375 
Q 38.96875 64.796875 32.078125 64.796875 
z
M 9.8125 72.90625 
L 32.078125 72.90625 
Q 44.34375 72.90625 50.609375 67.359375 
Q 56.890625 61.8125 56.890625 51.125 
Q 56.890625 40.328125 50.609375 34.8125 
Q 44.34375 29.296875 32.078125 29.296875 
L 19.671875 29.296875 
L 19.671875 0 
L 9.8125 0 
z
" id="DejaVuSans-80"/>
     </defs>
     <use xlink:href="#DejaVuSans-70"/>
     <use x="57.519531" xlink:href="#DejaVuSans-68"/>
     <use x="134.521484" xlink:href="#DejaVuSans-80"/>
    </g>
   </g>
  </g>
  <g id="axes_6">
   <g id="patch_113">
    <path d="M 531.772059 452.277656 
L 745.125 452.277656 
L 745.125 254.604929 
L 531.772059 254.604929 
z
" style="fill:#ffffff;"/>
   </g>
   <g id="patch_114">
    <path clip-path="url(#p8e3b875648)" d="M 532.838824 452.277656 
L 541.753929 452.277656 
L 541.753929 333.67402 
L 532.838824 333.67402 
z
" style="fill:#e3000f;stroke:#000000;stroke-linejoin:miter;"/>
   </g>
   <g id="patch_115">
    <path clip-path="url(#p8e3b875648)" d="M 541.753929 452.277656 
L 550.669034 452.277656 
L 550.669034 363.324929 
L 541.753929 363.324929 
z
" style="fill:#e3000f;stroke:#000000;stroke-linejoin:miter;"/>
   </g>
   <g id="patch_116">
    <path clip-path="url(#p8e3b875648)" d="M 550.669034 452.277656 
L 559.584139 452.277656 
L 559.584139 350.146747 
L 550.669034 350.146747 
z
" style="fill:#e3000f;stroke:#000000;stroke-linejoin:miter;"/>
   </g>
   <g id="patch_117">
    <path clip-path="url(#p8e3b875648)" d="M 559.584139 452.277656 
L 568.499244 452.277656 
L 568.499244 353.441293 
L 559.584139 353.441293 
z
" style="fill:#e3000f;stroke:#000000;stroke-linejoin:miter;"/>
   </g>
   <g id="patch_118">
    <path clip-path="url(#p8e3b875648)" d="M 568.499244 452.277656 
L 577.414349 452.277656 
L 577.414349 383.092202 
L 568.499244 383.092202 
z
" style="fill:#e3000f;stroke:#000000;stroke-linejoin:miter;"/>
   </g>
   <g id="patch_119">
    <path clip-path="url(#p8e3b875648)" d="M 577.414349 452.277656 
L 586.329454 452.277656 
L 586.329454 412.743111 
L 577.414349 412.743111 
z
" style="fill:#e3000f;stroke:#000000;stroke-linejoin:miter;"/>
   </g>
   <g id="patch_120">
    <path clip-path="url(#p8e3b875648)" d="M 586.329454 452.277656 
L 595.244559 452.277656 
L 595.244559 439.099474 
L 586.329454 439.099474 
z
" style="fill:#e3000f;stroke:#000000;stroke-linejoin:miter;"/>
   </g>
   <g id="patch_121">
    <path clip-path="url(#p8e3b875648)" d="M 595.244559 452.277656 
L 604.159664 452.277656 
L 604.159664 445.688565 
L 595.244559 445.688565 
z
" style="fill:#e3000f;stroke:#000000;stroke-linejoin:miter;"/>
   </g>
   <g id="patch_122">
    <path clip-path="url(#p8e3b875648)" d="M 604.159664 452.277656 
L 613.074769 452.277656 
L 613.074769 445.688565 
L 604.159664 445.688565 
z
" style="fill:#e3000f;stroke:#000000;stroke-linejoin:miter;"/>
   </g>
   <g id="patch_123">
    <path clip-path="url(#p8e3b875648)" d="M 613.074769 452.277656 
L 621.989874 452.277656 
L 621.989874 445.688565 
L 613.074769 445.688565 
z
" style="fill:#e3000f;stroke:#000000;stroke-linejoin:miter;"/>
   </g>
   <g id="patch_124">
    <path clip-path="url(#p8e3b875648)" d="M 621.989874 452.277656 
L 630.904979 452.277656 
L 630.904979 448.983111 
L 621.989874 448.983111 
z
" style="fill:#e3000f;stroke:#000000;stroke-linejoin:miter;"/>
   </g>
   <g id="patch_125">
    <path clip-path="url(#p8e3b875648)" d="M 630.904979 452.277656 
L 639.820084 452.277656 
L 639.820084 452.277656 
L 630.904979 452.277656 
z
" style="fill:#e3000f;stroke:#000000;stroke-linejoin:miter;"/>
   </g>
   <g id="patch_126">
    <path clip-path="url(#p8e3b875648)" d="M 639.820084 452.277656 
L 648.735189 452.277656 
L 648.735189 448.983111 
L 639.820084 448.983111 
z
" style="fill:#e3000f;stroke:#000000;stroke-linejoin:miter;"/>
   </g>
   <g id="patch_127">
    <path clip-path="url(#p8e3b875648)" d="M 648.735189 452.277656 
L 657.650294 452.277656 
L 657.650294 448.983111 
L 648.735189 448.983111 
z
" style="fill:#e3000f;stroke:#000000;stroke-linejoin:miter;"/>
   </g>
   <g id="patch_128">
    <path clip-path="url(#p8e3b875648)" d="M 657.650294 452.277656 
L 666.565399 452.277656 
L 666.565399 452.277656 
L 657.650294 452.277656 
z
" style="fill:#e3000f;stroke:#000000;stroke-linejoin:miter;"/>
   </g>
   <g id="patch_129">
    <path clip-path="url(#p8e3b875648)" d="M 666.565399 452.277656 
L 675.480504 452.277656 
L 675.480504 452.277656 
L 666.565399 452.277656 
z
" style="fill:#e3000f;stroke:#000000;stroke-linejoin:miter;"/>
   </g>
   <g id="patch_130">
    <path clip-path="url(#p8e3b875648)" d="M 675.480504 452.277656 
L 684.395609 452.277656 
L 684.395609 448.983111 
L 675.480504 448.983111 
z
" style="fill:#e3000f;stroke:#000000;stroke-linejoin:miter;"/>
   </g>
   <g id="patch_131">
    <path clip-path="url(#p8e3b875648)" d="M 684.395609 452.277656 
L 693.310714 452.277656 
L 693.310714 452.277656 
L 684.395609 452.277656 
z
" style="fill:#e3000f;stroke:#000000;stroke-linejoin:miter;"/>
   </g>
   <g id="patch_132">
    <path clip-path="url(#p8e3b875648)" d="M 693.310714 452.277656 
L 702.225819 452.277656 
L 702.225819 445.688565 
L 693.310714 445.688565 
z
" style="fill:#e3000f;stroke:#000000;stroke-linejoin:miter;"/>
   </g>
   <g id="patch_133">
    <path clip-path="url(#p8e3b875648)" d="M 702.225819 452.277656 
L 711.140924 452.277656 
L 711.140924 452.277656 
L 702.225819 452.277656 
z
" style="fill:#e3000f;stroke:#000000;stroke-linejoin:miter;"/>
   </g>
   <g id="patch_134">
    <path clip-path="url(#p8e3b875648)" d="M 711.140924 452.277656 
L 720.056029 452.277656 
L 720.056029 452.277656 
L 711.140924 452.277656 
z
" style="fill:#e3000f;stroke:#000000;stroke-linejoin:miter;"/>
   </g>
   <g id="patch_135">
    <path clip-path="url(#p8e3b875648)" d="M 720.056029 452.277656 
L 728.971134 452.277656 
L 728.971134 448.983111 
L 720.056029 448.983111 
z
" style="fill:#e3000f;stroke:#000000;stroke-linejoin:miter;"/>
   </g>
   <g id="patch_136">
    <path clip-path="url(#p8e3b875648)" d="M 728.971134 452.277656 
L 737.886239 452.277656 
L 737.886239 452.277656 
L 728.971134 452.277656 
z
" style="fill:#e3000f;stroke:#000000;stroke-linejoin:miter;"/>
   </g>
   <g id="patch_137">
    <path clip-path="url(#p8e3b875648)" d="M 737.886239 452.277656 
L 746.801345 452.277656 
L 746.801345 452.277656 
L 737.886239 452.277656 
z
" style="fill:#e3000f;stroke:#000000;stroke-linejoin:miter;"/>
   </g>
   <g id="patch_138">
    <path clip-path="url(#p8e3b875648)" d="M 746.801345 452.277656 
L 755.71645 452.277656 
L 755.71645 452.277656 
L 746.801345 452.277656 
z
" style="fill:#e3000f;stroke:#000000;stroke-linejoin:miter;"/>
   </g>
   <g id="patch_139">
    <path clip-path="url(#p8e3b875648)" d="M 755.71645 452.277656 
L 764.631555 452.277656 
L 764.631555 452.277656 
L 755.71645 452.277656 
z
" style="fill:#e3000f;stroke:#000000;stroke-linejoin:miter;"/>
   </g>
   <g id="patch_140">
    <path clip-path="url(#p8e3b875648)" d="M 764.631555 452.277656 
L 773.54666 452.277656 
L 773.54666 452.277656 
L 764.631555 452.277656 
z
" style="fill:#e3000f;stroke:#000000;stroke-linejoin:miter;"/>
   </g>
   <g id="patch_141">
    <path clip-path="url(#p8e3b875648)" d="M 773.54666 452.277656 
L 782.461765 452.277656 
L 782.461765 448.983111 
L 773.54666 448.983111 
z
" style="fill:#e3000f;stroke:#000000;stroke-linejoin:miter;"/>
   </g>
   <g id="matplotlib.axis_11">
    <g id="xtick_26">
     <g id="line2d_61">
      <g>
       <use style="stroke:#000000;stroke-width:0.8;" x="531.772059" xlink:href="#m5bccd9a9d1" y="452.277656"/>
      </g>
     </g>
     <g id="text_66">
      <!-- 0 -->
      <g transform="translate(528.590809 466.876094)scale(0.1 -0.1)">
       <use xlink:href="#DejaVuSans-48"/>
      </g>
     </g>
    </g>
    <g id="xtick_27">
     <g id="line2d_62">
      <g>
       <use style="stroke:#000000;stroke-width:0.8;" x="585.110294" xlink:href="#m5bccd9a9d1" y="452.277656"/>
      </g>
     </g>
     <g id="text_67">
      <!-- 50 -->
      <g transform="translate(578.747794 466.876094)scale(0.1 -0.1)">
       <use xlink:href="#DejaVuSans-53"/>
       <use x="63.623047" xlink:href="#DejaVuSans-48"/>
      </g>
     </g>
    </g>
    <g id="xtick_28">
     <g id="line2d_63">
      <g>
       <use style="stroke:#000000;stroke-width:0.8;" x="638.448529" xlink:href="#m5bccd9a9d1" y="452.277656"/>
      </g>
     </g>
     <g id="text_68">
      <!-- 100 -->
      <g transform="translate(628.904779 466.876094)scale(0.1 -0.1)">
       <use xlink:href="#DejaVuSans-49"/>
       <use x="63.623047" xlink:href="#DejaVuSans-48"/>
       <use x="127.246094" xlink:href="#DejaVuSans-48"/>
      </g>
     </g>
    </g>
    <g id="xtick_29">
     <g id="line2d_64">
      <g>
       <use style="stroke:#000000;stroke-width:0.8;" x="691.786765" xlink:href="#m5bccd9a9d1" y="452.277656"/>
      </g>
     </g>
     <g id="text_69">
      <!-- 150 -->
      <g transform="translate(682.243015 466.876094)scale(0.1 -0.1)">
       <use xlink:href="#DejaVuSans-49"/>
       <use x="63.623047" xlink:href="#DejaVuSans-53"/>
       <use x="127.246094" xlink:href="#DejaVuSans-48"/>
      </g>
     </g>
    </g>
    <g id="xtick_30">
     <g id="line2d_65">
      <g>
       <use style="stroke:#000000;stroke-width:0.8;" x="745.125" xlink:href="#m5bccd9a9d1" y="452.277656"/>
      </g>
     </g>
     <g id="text_70">
      <!-- 200 -->
      <g transform="translate(735.58125 466.876094)scale(0.1 -0.1)">
       <use xlink:href="#DejaVuSans-50"/>
       <use x="63.623047" xlink:href="#DejaVuSans-48"/>
       <use x="127.246094" xlink:href="#DejaVuSans-48"/>
      </g>
     </g>
    </g>
   </g>
   <g id="matplotlib.axis_12">
    <g id="ytick_36">
     <g id="line2d_66">
      <g>
       <use style="stroke:#000000;stroke-width:0.8;" x="531.772059" xlink:href="#m303181d3a1" y="452.277656"/>
      </g>
     </g>
     <g id="text_71">
      <!-- 0 -->
      <g transform="translate(518.409559 456.076875)scale(0.1 -0.1)">
       <use xlink:href="#DejaVuSans-48"/>
      </g>
     </g>
    </g>
    <g id="ytick_37">
     <g id="line2d_67">
      <g>
       <use style="stroke:#000000;stroke-width:0.8;" x="531.772059" xlink:href="#m303181d3a1" y="419.332202"/>
      </g>
     </g>
     <g id="text_72">
      <!-- 10 -->
      <g transform="translate(512.047059 423.13142)scale(0.1 -0.1)">
       <use xlink:href="#DejaVuSans-49"/>
       <use x="63.623047" xlink:href="#DejaVuSans-48"/>
      </g>
     </g>
    </g>
    <g id="ytick_38">
     <g id="line2d_68">
      <g>
       <use style="stroke:#000000;stroke-width:0.8;" x="531.772059" xlink:href="#m303181d3a1" y="386.386747"/>
      </g>
     </g>
     <g id="text_73">
      <!-- 20 -->
      <g transform="translate(512.047059 390.185966)scale(0.1 -0.1)">
       <use xlink:href="#DejaVuSans-50"/>
       <use x="63.623047" xlink:href="#DejaVuSans-48"/>
      </g>
     </g>
    </g>
    <g id="ytick_39">
     <g id="line2d_69">
      <g>
       <use style="stroke:#000000;stroke-width:0.8;" x="531.772059" xlink:href="#m303181d3a1" y="353.441293"/>
      </g>
     </g>
     <g id="text_74">
      <!-- 30 -->
      <g transform="translate(512.047059 357.240511)scale(0.1 -0.1)">
       <use xlink:href="#DejaVuSans-51"/>
       <use x="63.623047" xlink:href="#DejaVuSans-48"/>
      </g>
     </g>
    </g>
    <g id="ytick_40">
     <g id="line2d_70">
      <g>
       <use style="stroke:#000000;stroke-width:0.8;" x="531.772059" xlink:href="#m303181d3a1" y="320.495838"/>
      </g>
     </g>
     <g id="text_75">
      <!-- 40 -->
      <g transform="translate(512.047059 324.295057)scale(0.1 -0.1)">
       <use xlink:href="#DejaVuSans-52"/>
       <use x="63.623047" xlink:href="#DejaVuSans-48"/>
      </g>
     </g>
    </g>
    <g id="ytick_41">
     <g id="line2d_71">
      <g>
       <use style="stroke:#000000;stroke-width:0.8;" x="531.772059" xlink:href="#m303181d3a1" y="287.550384"/>
      </g>
     </g>
     <g id="text_76">
      <!-- 50 -->
      <g transform="translate(512.047059 291.349602)scale(0.1 -0.1)">
       <use xlink:href="#DejaVuSans-53"/>
       <use x="63.623047" xlink:href="#DejaVuSans-48"/>
      </g>
     </g>
    </g>
    <g id="ytick_42">
     <g id="line2d_72">
      <g>
       <use style="stroke:#000000;stroke-width:0.8;" x="531.772059" xlink:href="#m303181d3a1" y="254.604929"/>
      </g>
     </g>
     <g id="text_77">
      <!-- 60 -->
      <g transform="translate(512.047059 258.404148)scale(0.1 -0.1)">
       <use xlink:href="#DejaVuSans-54"/>
       <use x="63.623047" xlink:href="#DejaVuSans-48"/>
      </g>
     </g>
    </g>
   </g>
   <g id="patch_142">
    <path d="M 531.772059 452.277656 
L 531.772059 254.604929 
" style="fill:none;stroke:#000000;stroke-linecap:square;stroke-linejoin:miter;stroke-width:0.8;"/>
   </g>
   <g id="patch_143">
    <path d="M 745.125 452.277656 
L 745.125 254.604929 
" style="fill:none;stroke:#000000;stroke-linecap:square;stroke-linejoin:miter;stroke-width:0.8;"/>
   </g>
   <g id="patch_144">
    <path d="M 531.772059 452.277656 
L 745.125 452.277656 
" style="fill:none;stroke:#000000;stroke-linecap:square;stroke-linejoin:miter;stroke-width:0.8;"/>
   </g>
   <g id="patch_145">
    <path d="M 531.772059 254.604929 
L 745.125 254.604929 
" style="fill:none;stroke:#000000;stroke-linecap:square;stroke-linejoin:miter;stroke-width:0.8;"/>
   </g>
   <g id="text_78">
    <!-- SPD -->
    <g transform="translate(623.389936 248.604929)scale(0.15 -0.15)">
     <use xlink:href="#DejaVuSans-83"/>
     <use x="63.476562" xlink:href="#DejaVuSans-80"/>
     <use x="123.779297" xlink:href="#DejaVuSans-68"/>
    </g>
   </g>
  </g>
 </g>
 <defs>
  <clipPath id="pf78eeaaa90">
   <rect height="197.672727" width="213.352941" x="19.725" y="17.397656"/>
  </clipPath>
  <clipPath id="p5fb2d33701">
   <rect height="197.672727" width="213.352941" x="275.748529" y="17.397656"/>
  </clipPath>
  <clipPath id="pfc75b96c96">
   <rect height="197.672727" width="213.352941" x="531.772059" y="17.397656"/>
  </clipPath>
  <clipPath id="p23c021e9c6">
   <rect height="197.672727" width="213.352941" x="19.725" y="254.604929"/>
  </clipPath>
  <clipPath id="p56b278c99f">
   <rect height="197.672727" width="213.352941" x="275.748529" y="254.604929"/>
  </clipPath>
  <clipPath id="p8e3b875648">
   <rect height="197.672727" width="213.352941" x="531.772059" y="254.604929"/>
  </clipPath>
 </defs>
</svg>
